<svg xmlns="http://www.w3.org/2000/svg" xmlns:xlink="http://www.w3.org/1999/xlink" width="1920" zoomAndPan="magnify" viewBox="0 0 1440 359.999987" height="480" preserveAspectRatio="xMidYMid meet" version="1.2"><defs><clipPath id="de3e05f8b5"><path d="M 0 0 L 360 0 L 360 360 L 0 360 Z M 0 0 "/></clipPath><clipPath id="11d75a59a1"><path d="M 359.25 0 L 719.25 0 L 719.25 360 L 359.25 360 Z M 359.25 0 "/></clipPath><clipPath id="c7e4e5554f"><path d="M 718.5 0 L 1078.5 0 L 1078.5 360 L 718.5 360 Z M 718.5 0 "/></clipPath><clipPath id="17e68e42fc"><path d="M 1077.75 0 L 1437.75 0 L 1437.75 360 L 1077.75 360 Z M 1077.75 0 "/></clipPath></defs><g id="073ab02df6"><g clip-rule="nonzero" clip-path="url(#de3e05f8b5)"><path style=" stroke:none;fill-rule:evenodd;fill:#1a5e6e;fill-opacity:1;" d="M 32.507812 0.03125 L 43.1875 0.03125 L 43.425781 0.269531 L 27.425781 16.265625 L 22.085938 10.925781 L 32.742188 0.269531 Z M 54.761719 0.03125 L 32.976562 21.816406 L 60.101562 48.941406 L 87.226562 21.816406 L 70.996094 5.582031 L 54.761719 21.816406 L 60.101562 27.160156 L 70.996094 16.265625 L 76.546875 21.820312 L 60.101562 38.261719 L 43.65625 21.820312 L 65.441406 0.0351562 L 54.761719 0.0351562 Z M 77.019531 0.03125 L 87.699219 0.03125 L 98.355469 10.6875 L 93.015625 16.027344 Z M 152.535156 0.03125 L 163.214844 0.03125 L 163.449219 0.269531 L 147.453125 16.265625 L 142.113281 10.925781 L 152.769531 0.269531 Z M 174.789062 0.03125 L 153.003906 21.816406 L 180.128906 48.941406 L 207.253906 21.816406 L 191.019531 5.582031 L 174.785156 21.816406 L 180.128906 27.160156 L 191.019531 16.265625 L 196.574219 21.820312 L 180.128906 38.261719 L 163.683594 21.820312 L 185.46875 0.0351562 L 174.789062 0.0351562 Z M 197.042969 0.03125 L 207.726562 0.03125 L 218.382812 10.6875 L 213.042969 16.027344 Z M 272.5625 0.03125 L 283.242188 0.03125 L 283.476562 0.269531 L 267.476562 16.265625 L 262.136719 10.925781 L 272.792969 0.269531 Z M 294.8125 0.03125 L 273.03125 21.816406 L 300.15625 48.941406 L 327.28125 21.816406 L 311.046875 5.582031 L 294.8125 21.816406 L 300.152344 27.160156 L 311.046875 16.265625 L 316.597656 21.820312 L 300.152344 38.261719 L 283.707031 21.820312 L 305.496094 0.0351562 L 294.8125 0.0351562 Z M 317.070312 0.03125 L 327.753906 0.03125 L 338.410156 10.6875 L 333.070312 16.027344 Z M 360.171875 32.449219 L 360.171875 43.128906 L 359.933594 43.367188 L 343.9375 27.371094 L 349.277344 22.027344 L 359.933594 32.683594 Z M 360.171875 54.707031 L 360.171875 65.390625 L 338.382812 43.605469 L 321.941406 60.050781 L 338.382812 76.492188 L 343.9375 70.941406 L 333.042969 60.050781 L 338.382812 54.707031 L 354.617188 70.941406 L 338.382812 87.175781 L 311.257812 60.050781 L 338.382812 32.921875 Z M 360.171875 76.960938 L 344.171875 92.960938 L 349.511719 98.300781 L 360.171875 87.644531 Z M 360.171875 152.476562 L 360.171875 163.15625 L 359.933594 163.394531 L 343.9375 147.398438 L 349.277344 142.054688 L 359.933594 152.710938 Z M 360.171875 174.734375 L 338.382812 152.949219 L 311.257812 180.078125 L 338.382812 207.203125 L 354.617188 190.96875 L 338.382812 174.734375 L 333.042969 180.078125 L 343.9375 190.96875 L 338.382812 196.519531 L 321.941406 180.078125 L 338.382812 163.632812 L 360.171875 185.414062 Z M 360.171875 196.988281 L 360.171875 207.667969 L 349.511719 218.328125 L 344.171875 212.984375 Z M 360.171875 272.503906 L 360.171875 283.183594 L 359.933594 283.417969 L 343.9375 267.421875 L 349.277344 262.082031 L 359.933594 272.734375 Z M 360.171875 294.761719 L 338.382812 272.976562 L 311.257812 300.101562 L 338.382812 327.230469 L 354.617188 310.996094 L 338.382812 294.761719 L 333.042969 300.101562 L 343.9375 310.996094 L 338.382812 316.546875 L 321.941406 300.101562 L 338.382812 283.65625 L 360.171875 305.441406 Z M 360.171875 317.015625 L 360.171875 327.695312 L 349.511719 338.355469 L 344.171875 333.011719 Z M 327.753906 360.113281 L 317.070312 360.113281 L 316.835938 359.878906 L 332.832031 343.878906 L 338.175781 349.222656 L 327.515625 359.878906 Z M 305.496094 360.113281 L 294.8125 360.113281 L 316.597656 338.332031 L 300.152344 321.886719 L 283.707031 338.332031 L 289.261719 343.882812 L 300.152344 332.992188 L 305.496094 338.332031 L 289.261719 354.566406 L 273.027344 338.332031 L 300.152344 311.207031 L 327.28125 338.332031 Z M 283.242188 360.113281 L 267.242188 344.117188 L 261.902344 349.460938 L 272.5625 360.113281 Z M 207.726562 360.113281 L 197.042969 360.113281 L 196.8125 359.878906 L 212.808594 343.882812 L 218.148438 349.222656 L 207.492188 359.878906 Z M 185.46875 360.113281 L 207.253906 338.332031 L 180.128906 311.207031 L 153.003906 338.332031 L 169.238281 354.566406 L 185.472656 338.332031 L 180.132812 332.988281 L 169.238281 343.882812 L 163.6875 338.328125 L 180.132812 321.882812 L 196.578125 338.328125 L 174.792969 360.113281 Z M 163.214844 360.113281 L 152.535156 360.113281 L 141.875 349.460938 L 147.21875 344.117188 Z M 87.699219 360.113281 L 77.019531 360.113281 L 76.78125 359.878906 L 92.78125 343.878906 L 98.121094 349.222656 L 87.460938 359.878906 Z M 65.441406 360.113281 L 87.226562 338.332031 L 60.101562 311.203125 L 32.976562 338.332031 L 49.210938 354.566406 L 65.441406 338.332031 L 60.101562 332.988281 L 49.210938 343.878906 L 43.65625 338.328125 L 60.101562 321.882812 L 76.546875 338.328125 L 54.761719 360.113281 Z M 43.1875 360.113281 L 32.503906 360.113281 L 21.847656 349.460938 L 27.1875 344.117188 Z M 0.0898438 327.695312 L 0.0898438 317.015625 L 0.324219 316.78125 L 16.320312 332.777344 L 10.980469 338.121094 L 0.324219 327.460938 Z M 0.0898438 305.441406 L 0.0898438 294.761719 L 21.875 316.542969 L 38.316406 300.097656 L 21.875 283.652344 L 16.320312 289.207031 L 27.214844 300.097656 L 21.875 305.441406 L 5.640625 289.207031 L 21.875 272.972656 L 49 300.097656 L 21.875 327.222656 Z M 0.0898438 283.183594 L 16.085938 267.1875 L 10.746094 261.84375 L 0.0898438 272.5 Z M 0.0898438 207.667969 L 0.0898438 196.988281 L 0.324219 196.753906 L 16.324219 212.75 L 10.984375 218.09375 L 0.324219 207.4375 Z M 0.0898438 185.414062 L 21.875 207.199219 L 49 180.074219 L 21.875 152.945312 L 5.640625 169.179688 L 21.875 185.414062 L 27.214844 180.074219 L 16.324219 169.179688 L 21.875 163.628906 L 38.316406 180.074219 L 21.875 196.519531 L 0.0898438 174.734375 Z M 0.0898438 163.15625 L 0.0898438 152.476562 L 10.746094 141.820312 L 16.085938 147.164062 Z M 0.0898438 87.640625 L 0.0898438 76.960938 L 0.324219 76.726562 L 16.320312 92.722656 L 10.980469 98.066406 L 0.324219 87.410156 Z M 0.0898438 65.386719 L 0.0898438 54.707031 L 21.875 76.488281 L 38.316406 60.042969 L 21.875 43.597656 L 16.320312 49.152344 L 27.214844 60.042969 L 21.875 65.386719 L 5.640625 49.152344 L 21.875 32.917969 L 49 60.042969 L 21.875 87.171875 Z M 0.0898438 43.128906 L 16.085938 27.132812 L 10.746094 21.789062 L 0.0898438 32.445312 Z M 327.28125 218.300781 L 283.710938 261.871094 L 300.15625 278.316406 L 316.601562 261.871094 L 311.050781 256.316406 L 300.15625 267.207031 L 294.816406 261.867188 L 311.050781 245.632812 L 327.285156 261.867188 L 300.160156 288.992188 L 273.035156 261.867188 L 316.601562 218.300781 L 300.15625 201.855469 L 283.710938 218.300781 L 289.265625 223.851562 L 300.15625 212.957031 L 305.5 218.300781 L 289.265625 234.535156 L 273.03125 218.300781 L 300.15625 191.175781 Z M 272.792969 240.320312 L 262.136719 250.980469 L 267.476562 256.320312 L 283.476562 240.320312 C 278.066406 234.910156 272.65625 229.5 267.242188 224.089844 L 261.902344 229.429688 Z M 327.515625 239.851562 L 338.175781 229.195312 L 332.832031 223.851562 L 316.835938 239.851562 C 322.246094 245.261719 327.660156 250.671875 333.066406 256.085938 L 338.40625 250.746094 Z M 218.359375 272.976562 L 191.230469 300.101562 L 218.359375 327.226562 L 234.59375 310.992188 L 218.359375 294.757812 L 213.015625 300.101562 L 223.910156 310.992188 L 218.359375 316.546875 L 201.914062 300.101562 L 218.359375 283.65625 L 261.929688 327.222656 L 289.054688 300.097656 L 261.929688 272.972656 L 245.695312 289.207031 L 261.929688 305.441406 L 267.269531 300.097656 L 256.378906 289.207031 L 261.929688 283.652344 L 278.375 300.097656 L 261.929688 316.542969 Z M 240.378906 327.460938 L 229.488281 338.355469 L 224.144531 333.011719 C 229.554688 327.601562 234.96875 322.1875 240.378906 316.777344 L 256.378906 332.773438 L 251.039062 338.117188 Z M 239.90625 272.738281 L 250.800781 261.847656 L 256.140625 267.191406 C 250.730469 272.601562 245.320312 278.011719 239.90625 283.421875 L 223.910156 267.425781 L 229.25 262.082031 Z M 87.226562 218.300781 L 60.101562 191.175781 L 32.976562 218.300781 L 49.210938 234.535156 L 65.445312 218.300781 L 60.105469 212.957031 L 49.210938 223.851562 L 43.660156 218.300781 L 60.105469 201.855469 L 76.546875 218.300781 L 32.980469 261.867188 L 60.105469 288.992188 L 87.230469 261.867188 L 70.996094 245.632812 L 54.765625 261.867188 L 60.105469 267.207031 L 70.996094 256.316406 L 76.546875 261.871094 L 60.105469 278.316406 L 43.660156 261.871094 Z M 32.742188 240.320312 L 21.847656 229.429688 L 27.191406 224.089844 C 32.601562 229.5 38.011719 234.910156 43.425781 240.320312 L 27.425781 256.320312 L 22.085938 250.980469 Z M 87.464844 239.851562 L 98.355469 250.746094 L 93.015625 256.085938 C 87.605469 250.671875 82.191406 245.261719 76.78125 239.851562 L 92.78125 223.851562 L 98.121094 229.195312 Z M 141.902344 327.226562 L 98.332031 283.65625 L 81.886719 300.101562 L 98.332031 316.546875 L 103.882812 310.996094 L 92.992188 300.101562 L 98.332031 294.761719 L 114.566406 310.996094 L 98.332031 327.230469 L 71.203125 300.101562 L 98.332031 272.976562 L 141.898438 316.542969 L 158.34375 300.097656 L 141.898438 283.652344 L 136.347656 289.207031 L 147.242188 300.097656 L 141.898438 305.441406 L 125.664062 289.207031 L 141.898438 272.972656 L 169.023438 300.097656 Z M 119.878906 272.738281 L 109.226562 262.082031 L 103.882812 267.425781 L 119.878906 283.421875 C 125.292969 278.011719 130.703125 272.601562 136.113281 267.191406 L 130.773438 261.847656 Z M 120.351562 327.460938 L 131.007812 338.117188 L 136.347656 332.773438 L 120.351562 316.777344 C 114.9375 322.1875 109.527344 327.601562 104.117188 333.011719 L 109.457031 338.355469 Z M 207.253906 98.273438 L 163.6875 141.84375 L 180.132812 158.289062 L 196.578125 141.84375 L 191.023438 136.292969 L 180.132812 147.183594 L 174.792969 141.839844 L 191.023438 125.605469 L 207.257812 141.839844 L 180.132812 168.964844 L 153.007812 141.839844 L 196.578125 98.273438 L 180.132812 81.828125 L 163.6875 98.273438 L 169.238281 103.824219 L 180.132812 92.933594 L 185.472656 98.273438 L 169.238281 114.507812 L 153.003906 98.273438 L 180.128906 71.148438 Z M 152.769531 120.296875 L 142.113281 130.953125 L 147.457031 136.292969 L 163.449219 120.296875 C 158.039062 114.886719 152.628906 109.472656 147.21875 104.0625 L 141.875 109.402344 Z M 207.492188 119.828125 L 218.148438 109.167969 L 212.808594 103.828125 L 196.8125 119.828125 C 202.21875 125.238281 207.632812 130.648438 213.042969 136.058594 L 218.386719 130.71875 Z M 261.929688 207.199219 L 289.054688 180.074219 L 261.929688 152.945312 L 245.695312 169.179688 L 261.929688 185.414062 L 267.269531 180.074219 L 256.375 169.179688 L 261.929688 163.628906 L 278.375 180.074219 L 261.929688 196.519531 L 218.359375 152.949219 L 191.230469 180.078125 L 218.359375 207.203125 L 234.59375 190.96875 L 218.359375 174.734375 L 213.015625 180.078125 L 223.910156 190.96875 L 218.359375 196.519531 L 201.914062 180.078125 L 218.359375 163.632812 Z M 239.90625 152.710938 L 250.800781 141.820312 L 256.144531 147.164062 C 250.734375 152.574219 245.320312 157.984375 239.910156 163.398438 L 223.914062 147.398438 L 229.253906 142.054688 Z M 240.378906 207.4375 L 229.488281 218.328125 L 224.144531 212.984375 C 229.554688 207.574219 234.96875 202.160156 240.378906 196.75 L 256.378906 212.746094 L 251.039062 218.089844 Z M 153.003906 261.871094 L 196.574219 218.304688 L 180.128906 201.859375 L 163.683594 218.304688 L 169.234375 223.859375 L 180.128906 212.964844 L 185.46875 218.308594 L 169.234375 234.542969 L 153 218.308594 L 180.128906 191.179688 L 207.253906 218.308594 L 163.683594 261.875 L 180.128906 278.320312 L 196.574219 261.875 L 191.019531 256.320312 L 180.128906 267.214844 L 174.785156 261.871094 L 191.019531 245.636719 L 207.253906 261.871094 L 180.128906 289 Z M 207.488281 239.851562 L 218.148438 229.195312 L 212.804688 223.855469 L 196.804688 239.851562 C 202.21875 245.261719 207.628906 250.671875 213.039062 256.085938 L 218.378906 250.746094 Z M 152.769531 240.320312 L 142.113281 250.980469 L 147.453125 256.320312 L 163.449219 240.320312 C 158.039062 234.910156 152.628906 229.5 147.214844 224.089844 L 141.875 229.429688 Z M 98.332031 152.949219 L 141.902344 196.515625 L 158.347656 180.074219 L 141.902344 163.628906 L 136.351562 169.179688 L 147.242188 180.074219 L 141.902344 185.414062 L 125.667969 169.179688 L 141.902344 152.945312 L 169.027344 180.074219 L 141.902344 207.199219 L 98.332031 163.632812 L 81.886719 180.078125 L 98.332031 196.519531 L 103.882812 190.96875 L 92.992188 180.078125 L 98.335938 174.734375 L 114.570312 190.96875 L 98.335938 207.203125 L 71.210938 180.078125 Z M 120.351562 207.433594 L 131.011719 218.089844 L 136.351562 212.746094 L 120.351562 196.75 C 114.941406 202.160156 109.53125 207.574219 104.117188 212.984375 L 109.457031 218.328125 Z M 119.878906 152.710938 L 109.222656 142.054688 L 103.878906 147.398438 L 119.878906 163.398438 C 125.289062 157.984375 130.699219 152.574219 136.109375 147.164062 L 130.769531 141.820312 Z M 273.03125 141.84375 L 300.15625 168.972656 L 327.28125 141.84375 L 311.046875 125.609375 L 294.8125 141.84375 L 300.15625 147.1875 L 311.046875 136.292969 L 316.601562 141.847656 L 300.15625 158.292969 L 283.710938 141.847656 L 327.28125 98.28125 L 300.152344 71.152344 L 273.027344 98.28125 L 289.261719 114.515625 L 305.496094 98.28125 L 300.152344 92.9375 L 289.261719 103.828125 L 283.707031 98.277344 L 300.152344 81.832031 L 316.597656 98.277344 Z M 327.515625 119.824219 L 338.40625 130.71875 L 333.066406 136.058594 C 327.65625 130.648438 322.246094 125.234375 316.835938 119.824219 L 332.832031 103.824219 L 338.175781 109.167969 Z M 272.792969 120.292969 L 261.902344 109.402344 L 267.242188 104.058594 C 272.65625 109.472656 278.0625 114.882812 283.476562 120.292969 L 267.476562 136.292969 L 262.136719 130.953125 Z M 218.359375 32.921875 L 261.925781 76.488281 L 278.371094 60.042969 L 261.925781 43.597656 L 256.375 49.152344 L 267.265625 60.042969 L 261.925781 65.386719 L 245.691406 49.152344 L 261.925781 32.917969 L 289.050781 60.042969 L 261.925781 87.171875 L 218.355469 43.601562 L 201.914062 60.046875 L 218.355469 76.492188 L 223.90625 70.941406 L 213.015625 60.046875 L 218.355469 54.707031 L 234.589844 70.941406 L 218.355469 87.175781 L 191.230469 60.046875 Z M 240.378906 87.40625 L 251.039062 98.0625 L 256.378906 92.722656 L 240.378906 76.722656 C 234.96875 82.132812 229.558594 87.546875 224.144531 92.957031 L 229.488281 98.300781 Z M 239.90625 32.683594 L 229.25 22.03125 L 223.910156 27.371094 L 239.90625 43.367188 C 245.320312 37.957031 250.730469 32.546875 256.140625 27.136719 L 250.800781 21.792969 Z M 141.902344 87.171875 L 98.332031 43.605469 L 81.886719 60.050781 L 98.332031 76.492188 L 103.882812 70.941406 L 92.992188 60.050781 L 98.332031 54.707031 L 114.566406 70.941406 L 98.332031 87.175781 L 71.203125 60.050781 L 98.332031 32.921875 L 141.898438 76.488281 L 158.34375 60.046875 L 141.898438 43.601562 L 136.347656 49.152344 L 147.242188 60.046875 L 141.898438 65.386719 L 125.664062 49.152344 L 141.898438 32.917969 L 169.023438 60.046875 Z M 119.878906 32.683594 L 109.226562 22.03125 L 103.882812 27.371094 L 119.878906 43.371094 C 125.292969 37.957031 130.703125 32.546875 136.113281 27.136719 L 130.773438 21.792969 Z M 120.351562 87.410156 L 131.007812 98.0625 L 136.347656 92.722656 L 120.351562 76.722656 C 114.9375 82.132812 109.527344 87.546875 104.117188 92.957031 L 109.457031 98.300781 Z M 32.976562 141.84375 L 76.546875 98.277344 L 60.101562 81.832031 L 43.65625 98.277344 L 49.207031 103.828125 L 60.101562 92.9375 L 65.441406 98.28125 L 49.207031 114.515625 L 32.972656 98.28125 L 60.101562 71.152344 L 87.226562 98.28125 L 43.65625 141.847656 L 60.101562 158.292969 L 76.546875 141.847656 L 70.996094 136.292969 L 60.101562 147.1875 L 54.761719 141.84375 L 70.996094 125.609375 L 87.226562 141.84375 L 60.101562 168.972656 Z M 87.460938 119.824219 L 98.121094 109.167969 L 92.78125 103.824219 L 76.78125 119.824219 C 82.191406 125.234375 87.605469 130.648438 93.015625 136.058594 L 98.355469 130.71875 Z M 32.742188 120.292969 L 22.082031 130.953125 L 27.425781 136.292969 L 43.421875 120.292969 C 38.011719 114.882812 32.601562 109.472656 27.191406 104.058594 L 21.847656 109.402344 Z M 32.742188 120.292969 "/><path style=" stroke:none;fill-rule:evenodd;fill:#134f5c;fill-opacity:1;" d="M 360.171875 349.671875 L 349.722656 360.113281 L 360.171875 360.113281 Z M 0.0898438 0.03125 L 10.535156 0.03125 L 0.0898438 10.476562 Z M 109.667969 0.03125 L 130.558594 0.03125 L 120.113281 10.476562 Z M 229.699219 0.03125 L 250.59375 0.03125 L 240.144531 10.476562 Z M 349.726562 0.03125 L 360.171875 0.03125 L 360.171875 10.476562 Z M 360.171875 109.613281 L 360.171875 130.507812 L 349.722656 120.0625 Z M 360.171875 229.640625 L 360.171875 250.535156 L 349.722656 240.089844 Z M 250.589844 360.113281 L 229.699219 360.113281 L 240.144531 349.671875 Z M 130.5625 360.113281 L 109.671875 360.113281 L 120.117188 349.671875 Z M 10.535156 360.113281 L 0.0898438 360.113281 L 0.0898438 349.671875 Z M 0.0898438 250.535156 L 0.0898438 229.640625 L 10.535156 240.085938 Z M 0.0898438 130.507812 L 0.0898438 109.613281 L 10.535156 120.058594 Z M 120.117188 130.507812 L 130.5625 120.0625 L 120.117188 109.617188 L 109.667969 120.0625 Z M 240.144531 130.507812 L 250.589844 120.0625 L 240.144531 109.617188 L 229.695312 120.0625 Z M 120.117188 250.535156 L 130.5625 240.089844 L 120.117188 229.644531 L 109.667969 240.089844 Z M 240.144531 250.535156 L 250.589844 240.089844 L 240.144531 229.644531 L 229.695312 240.089844 Z M 240.144531 250.535156 "/></g><g clip-rule="nonzero" clip-path="url(#11d75a59a1)"><path style=" stroke:none;fill-rule:evenodd;fill:#1a5e6e;fill-opacity:1;" d="M 391.757812 0.03125 L 402.4375 0.03125 L 402.671875 0.269531 L 386.675781 16.265625 L 381.335938 10.925781 L 391.992188 0.269531 Z M 414.011719 0.03125 L 392.226562 21.816406 L 419.351562 48.941406 L 446.476562 21.816406 L 430.246094 5.582031 L 414.011719 21.816406 L 419.351562 27.160156 L 430.246094 16.265625 L 435.796875 21.820312 L 419.351562 38.261719 L 402.90625 21.820312 L 424.691406 0.0351562 L 414.011719 0.0351562 Z M 436.269531 0.03125 L 446.949219 0.03125 L 457.605469 10.6875 L 452.265625 16.027344 Z M 511.785156 0.03125 L 522.464844 0.03125 L 522.699219 0.269531 L 506.703125 16.265625 L 501.363281 10.925781 L 512.019531 0.269531 Z M 534.039062 0.03125 L 512.253906 21.816406 L 539.378906 48.941406 L 566.503906 21.816406 L 550.269531 5.582031 L 534.035156 21.816406 L 539.378906 27.160156 L 550.269531 16.265625 L 555.824219 21.820312 L 539.378906 38.261719 L 522.933594 21.820312 L 544.71875 0.0351562 L 534.039062 0.0351562 Z M 556.292969 0.03125 L 566.976562 0.03125 L 577.632812 10.6875 L 572.292969 16.027344 Z M 631.8125 0.03125 L 642.492188 0.03125 L 642.726562 0.269531 L 626.726562 16.265625 L 621.386719 10.925781 L 632.042969 0.269531 Z M 654.0625 0.03125 L 632.28125 21.816406 L 659.40625 48.941406 L 686.53125 21.816406 L 670.296875 5.582031 L 654.0625 21.816406 L 659.402344 27.160156 L 670.296875 16.265625 L 675.847656 21.820312 L 659.402344 38.261719 L 642.957031 21.820312 L 664.746094 0.0351562 L 654.0625 0.0351562 Z M 676.320312 0.03125 L 687.003906 0.03125 L 697.660156 10.6875 L 692.320312 16.027344 Z M 719.421875 32.449219 L 719.421875 43.128906 L 719.183594 43.367188 L 703.1875 27.371094 L 708.527344 22.027344 L 719.183594 32.683594 Z M 719.421875 54.707031 L 719.421875 65.390625 L 697.632812 43.605469 L 681.191406 60.050781 L 697.632812 76.492188 L 703.1875 70.941406 L 692.292969 60.050781 L 697.632812 54.707031 L 713.867188 70.941406 L 697.632812 87.175781 L 670.507812 60.050781 L 697.632812 32.921875 Z M 719.421875 76.960938 L 703.421875 92.960938 L 708.761719 98.300781 L 719.421875 87.644531 Z M 719.421875 152.476562 L 719.421875 163.15625 L 719.183594 163.394531 L 703.1875 147.398438 L 708.527344 142.054688 L 719.183594 152.710938 Z M 719.421875 174.734375 L 697.632812 152.949219 L 670.507812 180.078125 L 697.632812 207.203125 L 713.867188 190.96875 L 697.632812 174.734375 L 692.292969 180.078125 L 703.1875 190.96875 L 697.632812 196.519531 L 681.191406 180.078125 L 697.632812 163.632812 L 719.421875 185.414062 Z M 719.421875 196.988281 L 719.421875 207.667969 L 708.761719 218.328125 L 703.421875 212.984375 Z M 719.421875 272.503906 L 719.421875 283.183594 L 719.183594 283.417969 L 703.1875 267.421875 L 708.527344 262.082031 L 719.183594 272.734375 Z M 719.421875 294.761719 L 697.632812 272.976562 L 670.507812 300.101562 L 697.632812 327.230469 L 713.867188 310.996094 L 697.632812 294.761719 L 692.292969 300.101562 L 703.1875 310.996094 L 697.632812 316.546875 L 681.191406 300.101562 L 697.632812 283.65625 L 719.421875 305.441406 Z M 719.421875 317.015625 L 719.421875 327.695312 L 708.761719 338.355469 L 703.421875 333.011719 Z M 687.003906 360.113281 L 676.320312 360.113281 L 676.085938 359.878906 L 692.082031 343.878906 L 697.425781 349.222656 L 686.765625 359.878906 Z M 664.746094 360.113281 L 654.0625 360.113281 L 675.847656 338.332031 L 659.402344 321.886719 L 642.957031 338.332031 L 648.511719 343.882812 L 659.402344 332.992188 L 664.746094 338.332031 L 648.511719 354.566406 L 632.277344 338.332031 L 659.402344 311.207031 L 686.53125 338.332031 Z M 642.492188 360.113281 L 626.492188 344.117188 L 621.152344 349.460938 L 631.8125 360.113281 Z M 566.976562 360.113281 L 556.292969 360.113281 L 556.0625 359.878906 L 572.058594 343.882812 L 577.398438 349.222656 L 566.742188 359.878906 Z M 544.71875 360.113281 L 566.503906 338.332031 L 539.378906 311.207031 L 512.253906 338.332031 L 528.488281 354.566406 L 544.722656 338.332031 L 539.382812 332.988281 L 528.488281 343.882812 L 522.9375 338.328125 L 539.382812 321.882812 L 555.828125 338.328125 L 534.042969 360.113281 Z M 522.464844 360.113281 L 511.785156 360.113281 L 501.125 349.460938 L 506.46875 344.117188 Z M 446.949219 360.113281 L 436.269531 360.113281 L 436.03125 359.878906 L 452.03125 343.878906 L 457.371094 349.222656 L 446.710938 359.878906 Z M 424.691406 360.113281 L 446.476562 338.332031 L 419.351562 311.203125 L 392.226562 338.332031 L 408.460938 354.566406 L 424.691406 338.332031 L 419.351562 332.988281 L 408.460938 343.878906 L 402.90625 338.328125 L 419.351562 321.882812 L 435.796875 338.328125 L 414.011719 360.113281 Z M 402.4375 360.113281 L 391.753906 360.113281 L 381.097656 349.460938 L 386.4375 344.117188 Z M 359.339844 327.695312 L 359.339844 317.015625 L 359.574219 316.78125 L 375.570312 332.777344 L 370.230469 338.121094 L 359.574219 327.460938 Z M 359.339844 305.441406 L 359.339844 294.761719 L 381.125 316.542969 L 397.566406 300.097656 L 381.125 283.652344 L 375.570312 289.207031 L 386.464844 300.097656 L 381.125 305.441406 L 364.890625 289.207031 L 381.125 272.972656 L 408.25 300.097656 L 381.125 327.222656 Z M 359.339844 283.183594 L 375.335938 267.1875 L 369.996094 261.84375 L 359.339844 272.5 Z M 359.339844 207.667969 L 359.339844 196.988281 L 359.574219 196.753906 L 375.574219 212.75 L 370.234375 218.09375 L 359.574219 207.4375 Z M 359.339844 185.414062 L 381.125 207.199219 L 408.25 180.074219 L 381.125 152.945312 L 364.890625 169.179688 L 381.125 185.414062 L 386.464844 180.074219 L 375.574219 169.179688 L 381.125 163.628906 L 397.566406 180.074219 L 381.125 196.519531 L 359.339844 174.734375 Z M 359.339844 163.15625 L 359.339844 152.476562 L 369.996094 141.820312 L 375.335938 147.164062 Z M 359.339844 87.640625 L 359.339844 76.960938 L 359.574219 76.726562 L 375.570312 92.722656 L 370.230469 98.066406 L 359.574219 87.410156 Z M 359.339844 65.386719 L 359.339844 54.707031 L 381.125 76.488281 L 397.566406 60.042969 L 381.125 43.597656 L 375.570312 49.152344 L 386.464844 60.042969 L 381.125 65.386719 L 364.890625 49.152344 L 381.125 32.917969 L 408.25 60.042969 L 381.125 87.171875 Z M 359.339844 43.128906 L 375.335938 27.132812 L 369.996094 21.789062 L 359.339844 32.445312 Z M 686.53125 218.300781 L 642.960938 261.871094 L 659.40625 278.316406 L 675.851562 261.871094 L 670.300781 256.316406 L 659.40625 267.207031 L 654.066406 261.867188 L 670.300781 245.632812 L 686.535156 261.867188 L 659.410156 288.992188 L 632.285156 261.867188 L 675.851562 218.300781 L 659.40625 201.855469 L 642.960938 218.300781 L 648.515625 223.851562 L 659.40625 212.957031 L 664.75 218.300781 L 648.515625 234.535156 L 632.28125 218.300781 L 659.40625 191.175781 Z M 632.042969 240.320312 L 621.386719 250.980469 L 626.726562 256.320312 L 642.726562 240.320312 C 637.316406 234.910156 631.90625 229.5 626.492188 224.089844 L 621.152344 229.429688 Z M 686.765625 239.851562 L 697.425781 229.195312 L 692.082031 223.851562 L 676.085938 239.851562 C 681.496094 245.261719 686.910156 250.671875 692.316406 256.085938 L 697.65625 250.746094 Z M 577.609375 272.976562 L 550.480469 300.101562 L 577.609375 327.226562 L 593.84375 310.992188 L 577.609375 294.757812 L 572.265625 300.101562 L 583.160156 310.992188 L 577.609375 316.546875 L 561.164062 300.101562 L 577.609375 283.65625 L 621.179688 327.222656 L 648.304688 300.097656 L 621.179688 272.972656 L 604.945312 289.207031 L 621.179688 305.441406 L 626.519531 300.097656 L 615.628906 289.207031 L 621.179688 283.652344 L 637.625 300.097656 L 621.179688 316.542969 Z M 599.628906 327.460938 L 588.738281 338.355469 L 583.394531 333.011719 C 588.804688 327.601562 594.21875 322.1875 599.628906 316.777344 L 615.628906 332.773438 L 610.289062 338.117188 Z M 599.15625 272.738281 L 610.050781 261.847656 L 615.390625 267.191406 C 609.980469 272.601562 604.570312 278.011719 599.15625 283.421875 L 583.160156 267.425781 L 588.5 262.082031 Z M 446.476562 218.300781 L 419.351562 191.175781 L 392.226562 218.300781 L 408.460938 234.535156 L 424.695312 218.300781 L 419.355469 212.957031 L 408.460938 223.851562 L 402.910156 218.300781 L 419.355469 201.855469 L 435.796875 218.300781 L 392.230469 261.867188 L 419.355469 288.992188 L 446.480469 261.867188 L 430.246094 245.632812 L 414.015625 261.867188 L 419.355469 267.207031 L 430.246094 256.316406 L 435.796875 261.871094 L 419.355469 278.316406 L 402.910156 261.871094 Z M 391.992188 240.320312 L 381.097656 229.429688 L 386.441406 224.089844 C 391.851562 229.5 397.261719 234.910156 402.671875 240.320312 L 386.675781 256.320312 L 381.335938 250.980469 Z M 446.714844 239.851562 L 457.605469 250.746094 L 452.265625 256.085938 C 446.855469 250.671875 441.441406 245.261719 436.03125 239.851562 L 452.03125 223.851562 L 457.371094 229.195312 Z M 501.152344 327.226562 L 457.582031 283.65625 L 441.136719 300.101562 L 457.582031 316.546875 L 463.132812 310.996094 L 452.242188 300.101562 L 457.582031 294.761719 L 473.816406 310.996094 L 457.582031 327.230469 L 430.453125 300.101562 L 457.582031 272.976562 L 501.148438 316.542969 L 517.59375 300.097656 L 501.148438 283.652344 L 495.597656 289.207031 L 506.492188 300.097656 L 501.148438 305.441406 L 484.914062 289.207031 L 501.148438 272.972656 L 528.273438 300.097656 Z M 479.128906 272.738281 L 468.476562 262.082031 L 463.132812 267.425781 L 479.128906 283.421875 C 484.542969 278.011719 489.953125 272.601562 495.363281 267.191406 L 490.023438 261.847656 Z M 479.601562 327.460938 L 490.257812 338.117188 L 495.597656 332.773438 L 479.601562 316.777344 C 474.1875 322.1875 468.777344 327.601562 463.367188 333.011719 L 468.707031 338.355469 Z M 566.503906 98.273438 L 522.9375 141.84375 L 539.382812 158.289062 L 555.828125 141.84375 L 550.273438 136.292969 L 539.382812 147.183594 L 534.042969 141.839844 L 550.273438 125.605469 L 566.507812 141.839844 L 539.382812 168.964844 L 512.257812 141.839844 L 555.828125 98.273438 L 539.382812 81.828125 L 522.9375 98.273438 L 528.488281 103.824219 L 539.382812 92.933594 L 544.722656 98.273438 L 528.488281 114.507812 L 512.253906 98.273438 L 539.378906 71.148438 Z M 512.019531 120.296875 L 501.363281 130.953125 L 506.707031 136.292969 L 522.699219 120.296875 C 517.289062 114.886719 511.878906 109.472656 506.46875 104.0625 L 501.125 109.402344 Z M 566.742188 119.828125 L 577.398438 109.167969 L 572.058594 103.828125 L 556.0625 119.828125 C 561.46875 125.238281 566.882812 130.648438 572.292969 136.058594 L 577.636719 130.71875 Z M 621.179688 207.199219 L 648.304688 180.074219 L 621.179688 152.945312 L 604.945312 169.179688 L 621.179688 185.414062 L 626.519531 180.074219 L 615.625 169.179688 L 621.179688 163.628906 L 637.625 180.074219 L 621.179688 196.519531 L 577.609375 152.949219 L 550.480469 180.078125 L 577.609375 207.203125 L 593.84375 190.96875 L 577.609375 174.734375 L 572.265625 180.078125 L 583.160156 190.96875 L 577.609375 196.519531 L 561.164062 180.078125 L 577.609375 163.632812 Z M 599.15625 152.710938 L 610.050781 141.820312 L 615.394531 147.164062 C 609.984375 152.574219 604.570312 157.984375 599.160156 163.398438 L 583.164062 147.398438 L 588.503906 142.054688 Z M 599.628906 207.4375 L 588.738281 218.328125 L 583.394531 212.984375 C 588.804688 207.574219 594.21875 202.160156 599.628906 196.75 L 615.628906 212.746094 L 610.289062 218.089844 Z M 512.253906 261.871094 L 555.824219 218.304688 L 539.378906 201.859375 L 522.933594 218.304688 L 528.484375 223.859375 L 539.378906 212.964844 L 544.71875 218.308594 L 528.484375 234.542969 L 512.25 218.308594 L 539.378906 191.179688 L 566.503906 218.308594 L 522.933594 261.875 L 539.378906 278.320312 L 555.824219 261.875 L 550.269531 256.320312 L 539.378906 267.214844 L 534.035156 261.871094 L 550.269531 245.636719 L 566.503906 261.871094 L 539.378906 289 Z M 566.738281 239.851562 L 577.398438 229.195312 L 572.054688 223.855469 L 556.054688 239.851562 C 561.46875 245.261719 566.878906 250.671875 572.289062 256.085938 L 577.628906 250.746094 Z M 512.019531 240.320312 L 501.363281 250.980469 L 506.703125 256.320312 L 522.699219 240.320312 C 517.289062 234.910156 511.878906 229.5 506.464844 224.089844 L 501.125 229.429688 Z M 457.582031 152.949219 L 501.152344 196.515625 L 517.597656 180.074219 L 501.152344 163.628906 L 495.601562 169.179688 L 506.492188 180.074219 L 501.152344 185.414062 L 484.917969 169.179688 L 501.152344 152.945312 L 528.277344 180.074219 L 501.152344 207.199219 L 457.582031 163.632812 L 441.136719 180.078125 L 457.582031 196.519531 L 463.132812 190.96875 L 452.242188 180.078125 L 457.585938 174.734375 L 473.820312 190.96875 L 457.585938 207.203125 L 430.460938 180.078125 Z M 479.601562 207.433594 L 490.261719 218.089844 L 495.601562 212.746094 L 479.601562 196.75 C 474.191406 202.160156 468.78125 207.574219 463.367188 212.984375 L 468.707031 218.328125 Z M 479.128906 152.710938 L 468.472656 142.054688 L 463.128906 147.398438 L 479.128906 163.398438 C 484.539062 157.984375 489.949219 152.574219 495.359375 147.164062 L 490.019531 141.820312 Z M 632.28125 141.84375 L 659.40625 168.972656 L 686.53125 141.84375 L 670.296875 125.609375 L 654.0625 141.84375 L 659.40625 147.1875 L 670.296875 136.292969 L 675.851562 141.847656 L 659.40625 158.292969 L 642.960938 141.847656 L 686.53125 98.28125 L 659.402344 71.152344 L 632.277344 98.28125 L 648.511719 114.515625 L 664.746094 98.28125 L 659.402344 92.9375 L 648.511719 103.828125 L 642.957031 98.277344 L 659.402344 81.832031 L 675.847656 98.277344 Z M 686.765625 119.824219 L 697.65625 130.71875 L 692.316406 136.058594 C 686.90625 130.648438 681.496094 125.234375 676.085938 119.824219 L 692.082031 103.824219 L 697.425781 109.167969 Z M 632.042969 120.292969 L 621.152344 109.402344 L 626.492188 104.058594 C 631.90625 109.472656 637.3125 114.882812 642.726562 120.292969 L 626.726562 136.292969 L 621.386719 130.953125 Z M 577.609375 32.921875 L 621.175781 76.488281 L 637.621094 60.042969 L 621.175781 43.597656 L 615.625 49.152344 L 626.515625 60.042969 L 621.175781 65.386719 L 604.941406 49.152344 L 621.175781 32.917969 L 648.300781 60.042969 L 621.175781 87.171875 L 577.605469 43.601562 L 561.164062 60.046875 L 577.605469 76.492188 L 583.15625 70.941406 L 572.265625 60.046875 L 577.605469 54.707031 L 593.839844 70.941406 L 577.605469 87.175781 L 550.480469 60.046875 Z M 599.628906 87.40625 L 610.289062 98.0625 L 615.628906 92.722656 L 599.628906 76.722656 C 594.21875 82.132812 588.808594 87.546875 583.394531 92.957031 L 588.738281 98.300781 Z M 599.15625 32.683594 L 588.5 22.03125 L 583.160156 27.371094 L 599.15625 43.367188 C 604.570312 37.957031 609.980469 32.546875 615.390625 27.136719 L 610.050781 21.792969 Z M 501.152344 87.171875 L 457.582031 43.605469 L 441.136719 60.050781 L 457.582031 76.492188 L 463.132812 70.941406 L 452.242188 60.050781 L 457.582031 54.707031 L 473.816406 70.941406 L 457.582031 87.175781 L 430.453125 60.050781 L 457.582031 32.921875 L 501.148438 76.488281 L 517.59375 60.046875 L 501.148438 43.601562 L 495.597656 49.152344 L 506.492188 60.046875 L 501.148438 65.386719 L 484.914062 49.152344 L 501.148438 32.917969 L 528.273438 60.046875 Z M 479.128906 32.683594 L 468.476562 22.03125 L 463.132812 27.371094 L 479.128906 43.371094 C 484.542969 37.957031 489.953125 32.546875 495.363281 27.136719 L 490.023438 21.792969 Z M 479.601562 87.410156 L 490.257812 98.0625 L 495.597656 92.722656 L 479.601562 76.722656 C 474.1875 82.132812 468.777344 87.546875 463.367188 92.957031 L 468.707031 98.300781 Z M 392.226562 141.84375 L 435.796875 98.277344 L 419.351562 81.832031 L 402.90625 98.277344 L 408.457031 103.828125 L 419.351562 92.9375 L 424.691406 98.28125 L 408.457031 114.515625 L 392.222656 98.28125 L 419.351562 71.152344 L 446.476562 98.28125 L 402.90625 141.847656 L 419.351562 158.292969 L 435.796875 141.847656 L 430.246094 136.292969 L 419.351562 147.1875 L 414.011719 141.84375 L 430.246094 125.609375 L 446.476562 141.84375 L 419.351562 168.972656 Z M 446.710938 119.824219 L 457.371094 109.167969 L 452.03125 103.824219 L 436.03125 119.824219 C 441.441406 125.234375 446.855469 130.648438 452.265625 136.058594 L 457.605469 130.71875 Z M 391.992188 120.292969 L 381.332031 130.953125 L 386.675781 136.292969 L 402.671875 120.292969 C 397.261719 114.882812 391.851562 109.472656 386.441406 104.058594 L 381.097656 109.402344 Z M 391.992188 120.292969 "/><path style=" stroke:none;fill-rule:evenodd;fill:#134f5c;fill-opacity:1;" d="M 719.421875 349.671875 L 708.972656 360.113281 L 719.421875 360.113281 Z M 359.339844 0.03125 L 369.785156 0.03125 L 359.339844 10.476562 Z M 468.917969 0.03125 L 489.808594 0.03125 L 479.363281 10.476562 Z M 588.949219 0.03125 L 609.84375 0.03125 L 599.394531 10.476562 Z M 708.976562 0.03125 L 719.421875 0.03125 L 719.421875 10.476562 Z M 719.421875 109.613281 L 719.421875 130.507812 L 708.972656 120.0625 Z M 719.421875 229.640625 L 719.421875 250.535156 L 708.972656 240.089844 Z M 609.839844 360.113281 L 588.949219 360.113281 L 599.394531 349.671875 Z M 489.8125 360.113281 L 468.921875 360.113281 L 479.367188 349.671875 Z M 369.785156 360.113281 L 359.339844 360.113281 L 359.339844 349.671875 Z M 359.339844 250.535156 L 359.339844 229.640625 L 369.785156 240.085938 Z M 359.339844 130.507812 L 359.339844 109.613281 L 369.785156 120.058594 Z M 479.367188 130.507812 L 489.8125 120.0625 L 479.367188 109.617188 L 468.917969 120.0625 Z M 599.394531 130.507812 L 609.839844 120.0625 L 599.394531 109.617188 L 588.945312 120.0625 Z M 479.367188 250.535156 L 489.8125 240.089844 L 479.367188 229.644531 L 468.917969 240.089844 Z M 599.394531 250.535156 L 609.839844 240.089844 L 599.394531 229.644531 L 588.945312 240.089844 Z M 599.394531 250.535156 "/></g><g clip-rule="nonzero" clip-path="url(#c7e4e5554f)"><path style=" stroke:none;fill-rule:evenodd;fill:#1a5e6e;fill-opacity:1;" d="M 751.007812 0.03125 L 761.6875 0.03125 L 761.921875 0.269531 L 745.925781 16.265625 L 740.585938 10.925781 L 751.242188 0.269531 Z M 773.261719 0.03125 L 751.476562 21.816406 L 778.601562 48.941406 L 805.726562 21.816406 L 789.496094 5.582031 L 773.261719 21.816406 L 778.601562 27.160156 L 789.496094 16.265625 L 795.046875 21.820312 L 778.601562 38.261719 L 762.15625 21.820312 L 783.941406 0.0351562 L 773.261719 0.0351562 Z M 795.519531 0.03125 L 806.199219 0.03125 L 816.855469 10.6875 L 811.515625 16.027344 Z M 871.035156 0.03125 L 881.714844 0.03125 L 881.949219 0.269531 L 865.953125 16.265625 L 860.613281 10.925781 L 871.269531 0.269531 Z M 893.289062 0.03125 L 871.503906 21.816406 L 898.628906 48.941406 L 925.753906 21.816406 L 909.519531 5.582031 L 893.285156 21.816406 L 898.628906 27.160156 L 909.519531 16.265625 L 915.074219 21.820312 L 898.628906 38.261719 L 882.183594 21.820312 L 903.96875 0.0351562 L 893.289062 0.0351562 Z M 915.542969 0.03125 L 926.226562 0.03125 L 936.882812 10.6875 L 931.542969 16.027344 Z M 991.0625 0.03125 L 1001.742188 0.03125 L 1001.976562 0.269531 L 985.976562 16.265625 L 980.636719 10.925781 L 991.292969 0.269531 Z M 1013.3125 0.03125 L 991.53125 21.816406 L 1018.65625 48.941406 L 1045.78125 21.816406 L 1029.546875 5.582031 L 1013.3125 21.816406 L 1018.652344 27.160156 L 1029.546875 16.265625 L 1035.097656 21.820312 L 1018.652344 38.261719 L 1002.207031 21.820312 L 1023.996094 0.0351562 L 1013.3125 0.0351562 Z M 1035.570312 0.03125 L 1046.253906 0.03125 L 1056.910156 10.6875 L 1051.570312 16.027344 Z M 1078.671875 32.449219 L 1078.671875 43.128906 L 1078.433594 43.367188 L 1062.4375 27.371094 L 1067.777344 22.027344 L 1078.433594 32.683594 Z M 1078.671875 54.707031 L 1078.671875 65.390625 L 1056.882812 43.605469 L 1040.441406 60.050781 L 1056.882812 76.492188 L 1062.4375 70.941406 L 1051.542969 60.050781 L 1056.882812 54.707031 L 1073.117188 70.941406 L 1056.882812 87.175781 L 1029.757812 60.050781 L 1056.882812 32.921875 Z M 1078.671875 76.960938 L 1062.671875 92.960938 L 1068.011719 98.300781 L 1078.671875 87.644531 Z M 1078.671875 152.476562 L 1078.671875 163.15625 L 1078.433594 163.394531 L 1062.4375 147.398438 L 1067.777344 142.054688 L 1078.433594 152.710938 Z M 1078.671875 174.734375 L 1056.882812 152.949219 L 1029.757812 180.078125 L 1056.882812 207.203125 L 1073.117188 190.96875 L 1056.882812 174.734375 L 1051.542969 180.078125 L 1062.4375 190.96875 L 1056.882812 196.519531 L 1040.441406 180.078125 L 1056.882812 163.632812 L 1078.671875 185.414062 Z M 1078.671875 196.988281 L 1078.671875 207.667969 L 1068.011719 218.328125 L 1062.671875 212.984375 Z M 1078.671875 272.503906 L 1078.671875 283.183594 L 1078.433594 283.417969 L 1062.4375 267.421875 L 1067.777344 262.082031 L 1078.433594 272.734375 Z M 1078.671875 294.761719 L 1056.882812 272.976562 L 1029.757812 300.101562 L 1056.882812 327.230469 L 1073.117188 310.996094 L 1056.882812 294.761719 L 1051.542969 300.101562 L 1062.4375 310.996094 L 1056.882812 316.546875 L 1040.441406 300.101562 L 1056.882812 283.65625 L 1078.671875 305.441406 Z M 1078.671875 317.015625 L 1078.671875 327.695312 L 1068.011719 338.355469 L 1062.671875 333.011719 Z M 1046.253906 360.113281 L 1035.570312 360.113281 L 1035.335938 359.878906 L 1051.332031 343.878906 L 1056.675781 349.222656 L 1046.015625 359.878906 Z M 1023.996094 360.113281 L 1013.3125 360.113281 L 1035.097656 338.332031 L 1018.652344 321.886719 L 1002.207031 338.332031 L 1007.761719 343.882812 L 1018.652344 332.992188 L 1023.996094 338.332031 L 1007.761719 354.566406 L 991.527344 338.332031 L 1018.652344 311.207031 L 1045.78125 338.332031 Z M 1001.742188 360.113281 L 985.742188 344.117188 L 980.402344 349.460938 L 991.0625 360.113281 Z M 926.226562 360.113281 L 915.542969 360.113281 L 915.3125 359.878906 L 931.308594 343.882812 L 936.648438 349.222656 L 925.992188 359.878906 Z M 903.96875 360.113281 L 925.753906 338.332031 L 898.628906 311.207031 L 871.503906 338.332031 L 887.738281 354.566406 L 903.972656 338.332031 L 898.632812 332.988281 L 887.738281 343.882812 L 882.1875 338.328125 L 898.632812 321.882812 L 915.078125 338.328125 L 893.292969 360.113281 Z M 881.714844 360.113281 L 871.035156 360.113281 L 860.375 349.460938 L 865.71875 344.117188 Z M 806.199219 360.113281 L 795.519531 360.113281 L 795.28125 359.878906 L 811.28125 343.878906 L 816.621094 349.222656 L 805.960938 359.878906 Z M 783.941406 360.113281 L 805.726562 338.332031 L 778.601562 311.203125 L 751.476562 338.332031 L 767.710938 354.566406 L 783.941406 338.332031 L 778.601562 332.988281 L 767.710938 343.878906 L 762.15625 338.328125 L 778.601562 321.882812 L 795.046875 338.328125 L 773.261719 360.113281 Z M 761.6875 360.113281 L 751.003906 360.113281 L 740.347656 349.460938 L 745.6875 344.117188 Z M 718.589844 327.695312 L 718.589844 317.015625 L 718.824219 316.78125 L 734.820312 332.777344 L 729.480469 338.121094 L 718.824219 327.460938 Z M 718.589844 305.441406 L 718.589844 294.761719 L 740.375 316.542969 L 756.816406 300.097656 L 740.375 283.652344 L 734.820312 289.207031 L 745.714844 300.097656 L 740.375 305.441406 L 724.140625 289.207031 L 740.375 272.972656 L 767.5 300.097656 L 740.375 327.222656 Z M 718.589844 283.183594 L 734.585938 267.1875 L 729.246094 261.84375 L 718.589844 272.5 Z M 718.589844 207.667969 L 718.589844 196.988281 L 718.824219 196.753906 L 734.824219 212.75 L 729.484375 218.09375 L 718.824219 207.4375 Z M 718.589844 185.414062 L 740.375 207.199219 L 767.5 180.074219 L 740.375 152.945312 L 724.140625 169.179688 L 740.375 185.414062 L 745.714844 180.074219 L 734.824219 169.179688 L 740.375 163.628906 L 756.816406 180.074219 L 740.375 196.519531 L 718.589844 174.734375 Z M 718.589844 163.15625 L 718.589844 152.476562 L 729.246094 141.820312 L 734.585938 147.164062 Z M 718.589844 87.640625 L 718.589844 76.960938 L 718.824219 76.726562 L 734.820312 92.722656 L 729.480469 98.066406 L 718.824219 87.410156 Z M 718.589844 65.386719 L 718.589844 54.707031 L 740.375 76.488281 L 756.816406 60.042969 L 740.375 43.597656 L 734.820312 49.152344 L 745.714844 60.042969 L 740.375 65.386719 L 724.140625 49.152344 L 740.375 32.917969 L 767.5 60.042969 L 740.375 87.171875 Z M 718.589844 43.128906 L 734.585938 27.132812 L 729.246094 21.789062 L 718.589844 32.445312 Z M 1045.78125 218.300781 L 1002.210938 261.871094 L 1018.65625 278.316406 L 1035.101562 261.871094 L 1029.550781 256.316406 L 1018.65625 267.207031 L 1013.316406 261.867188 L 1029.550781 245.632812 L 1045.785156 261.867188 L 1018.660156 288.992188 L 991.535156 261.867188 L 1035.101562 218.300781 L 1018.65625 201.855469 L 1002.210938 218.300781 L 1007.765625 223.851562 L 1018.65625 212.957031 L 1024 218.300781 L 1007.765625 234.535156 L 991.53125 218.300781 L 1018.65625 191.175781 Z M 991.292969 240.320312 L 980.636719 250.980469 L 985.976562 256.320312 L 1001.976562 240.320312 C 996.566406 234.910156 991.15625 229.5 985.742188 224.089844 L 980.402344 229.429688 Z M 1046.015625 239.851562 L 1056.675781 229.195312 L 1051.332031 223.851562 L 1035.335938 239.851562 C 1040.746094 245.261719 1046.160156 250.671875 1051.566406 256.085938 L 1056.90625 250.746094 Z M 936.859375 272.976562 L 909.730469 300.101562 L 936.859375 327.226562 L 953.09375 310.992188 L 936.859375 294.757812 L 931.515625 300.101562 L 942.410156 310.992188 L 936.859375 316.546875 L 920.414062 300.101562 L 936.859375 283.65625 L 980.429688 327.222656 L 1007.554688 300.097656 L 980.429688 272.972656 L 964.195312 289.207031 L 980.429688 305.441406 L 985.769531 300.097656 L 974.878906 289.207031 L 980.429688 283.652344 L 996.875 300.097656 L 980.429688 316.542969 Z M 958.878906 327.460938 L 947.988281 338.355469 L 942.644531 333.011719 C 948.054688 327.601562 953.46875 322.1875 958.878906 316.777344 L 974.878906 332.773438 L 969.539062 338.117188 Z M 958.40625 272.738281 L 969.300781 261.847656 L 974.640625 267.191406 C 969.230469 272.601562 963.820312 278.011719 958.40625 283.421875 L 942.410156 267.425781 L 947.75 262.082031 Z M 805.726562 218.300781 L 778.601562 191.175781 L 751.476562 218.300781 L 767.710938 234.535156 L 783.945312 218.300781 L 778.605469 212.957031 L 767.710938 223.851562 L 762.160156 218.300781 L 778.605469 201.855469 L 795.046875 218.300781 L 751.480469 261.867188 L 778.605469 288.992188 L 805.730469 261.867188 L 789.496094 245.632812 L 773.265625 261.867188 L 778.605469 267.207031 L 789.496094 256.316406 L 795.046875 261.871094 L 778.605469 278.316406 L 762.160156 261.871094 Z M 751.242188 240.320312 L 740.347656 229.429688 L 745.691406 224.089844 C 751.101562 229.5 756.511719 234.910156 761.921875 240.320312 L 745.925781 256.320312 L 740.585938 250.980469 Z M 805.964844 239.851562 L 816.855469 250.746094 L 811.515625 256.085938 C 806.105469 250.671875 800.691406 245.261719 795.28125 239.851562 L 811.28125 223.851562 L 816.621094 229.195312 Z M 860.402344 327.226562 L 816.832031 283.65625 L 800.386719 300.101562 L 816.832031 316.546875 L 822.382812 310.996094 L 811.492188 300.101562 L 816.832031 294.761719 L 833.066406 310.996094 L 816.832031 327.230469 L 789.703125 300.101562 L 816.832031 272.976562 L 860.398438 316.542969 L 876.84375 300.097656 L 860.398438 283.652344 L 854.847656 289.207031 L 865.742188 300.097656 L 860.398438 305.441406 L 844.164062 289.207031 L 860.398438 272.972656 L 887.523438 300.097656 Z M 838.378906 272.738281 L 827.726562 262.082031 L 822.382812 267.425781 L 838.378906 283.421875 C 843.792969 278.011719 849.203125 272.601562 854.613281 267.191406 L 849.273438 261.847656 Z M 838.851562 327.460938 L 849.507812 338.117188 L 854.847656 332.773438 L 838.851562 316.777344 C 833.4375 322.1875 828.027344 327.601562 822.617188 333.011719 L 827.957031 338.355469 Z M 925.753906 98.273438 L 882.1875 141.84375 L 898.632812 158.289062 L 915.078125 141.84375 L 909.523438 136.292969 L 898.632812 147.183594 L 893.292969 141.839844 L 909.523438 125.605469 L 925.757812 141.839844 L 898.632812 168.964844 L 871.507812 141.839844 L 915.078125 98.273438 L 898.632812 81.828125 L 882.1875 98.273438 L 887.738281 103.824219 L 898.632812 92.933594 L 903.972656 98.273438 L 887.738281 114.507812 L 871.503906 98.273438 L 898.628906 71.148438 Z M 871.269531 120.296875 L 860.613281 130.953125 L 865.957031 136.292969 L 881.949219 120.296875 C 876.539062 114.886719 871.128906 109.472656 865.71875 104.0625 L 860.375 109.402344 Z M 925.992188 119.828125 L 936.648438 109.167969 L 931.308594 103.828125 L 915.3125 119.828125 C 920.71875 125.238281 926.132812 130.648438 931.542969 136.058594 L 936.886719 130.71875 Z M 980.429688 207.199219 L 1007.554688 180.074219 L 980.429688 152.945312 L 964.195312 169.179688 L 980.429688 185.414062 L 985.769531 180.074219 L 974.875 169.179688 L 980.429688 163.628906 L 996.875 180.074219 L 980.429688 196.519531 L 936.859375 152.949219 L 909.730469 180.078125 L 936.859375 207.203125 L 953.09375 190.96875 L 936.859375 174.734375 L 931.515625 180.078125 L 942.410156 190.96875 L 936.859375 196.519531 L 920.414062 180.078125 L 936.859375 163.632812 Z M 958.40625 152.710938 L 969.300781 141.820312 L 974.644531 147.164062 C 969.234375 152.574219 963.820312 157.984375 958.410156 163.398438 L 942.414062 147.398438 L 947.753906 142.054688 Z M 958.878906 207.4375 L 947.988281 218.328125 L 942.644531 212.984375 C 948.054688 207.574219 953.46875 202.160156 958.878906 196.75 L 974.878906 212.746094 L 969.539062 218.089844 Z M 871.503906 261.871094 L 915.074219 218.304688 L 898.628906 201.859375 L 882.183594 218.304688 L 887.734375 223.859375 L 898.628906 212.964844 L 903.96875 218.308594 L 887.734375 234.542969 L 871.5 218.308594 L 898.628906 191.179688 L 925.753906 218.308594 L 882.183594 261.875 L 898.628906 278.320312 L 915.074219 261.875 L 909.519531 256.320312 L 898.628906 267.214844 L 893.285156 261.871094 L 909.519531 245.636719 L 925.753906 261.871094 L 898.628906 289 Z M 925.988281 239.851562 L 936.648438 229.195312 L 931.304688 223.855469 L 915.304688 239.851562 C 920.71875 245.261719 926.128906 250.671875 931.539062 256.085938 L 936.878906 250.746094 Z M 871.269531 240.320312 L 860.613281 250.980469 L 865.953125 256.320312 L 881.949219 240.320312 C 876.539062 234.910156 871.128906 229.5 865.714844 224.089844 L 860.375 229.429688 Z M 816.832031 152.949219 L 860.402344 196.515625 L 876.847656 180.074219 L 860.402344 163.628906 L 854.851562 169.179688 L 865.742188 180.074219 L 860.402344 185.414062 L 844.167969 169.179688 L 860.402344 152.945312 L 887.527344 180.074219 L 860.402344 207.199219 L 816.832031 163.632812 L 800.386719 180.078125 L 816.832031 196.519531 L 822.382812 190.96875 L 811.492188 180.078125 L 816.835938 174.734375 L 833.070312 190.96875 L 816.835938 207.203125 L 789.710938 180.078125 Z M 838.851562 207.433594 L 849.511719 218.089844 L 854.851562 212.746094 L 838.851562 196.75 C 833.441406 202.160156 828.03125 207.574219 822.617188 212.984375 L 827.957031 218.328125 Z M 838.378906 152.710938 L 827.722656 142.054688 L 822.378906 147.398438 L 838.378906 163.398438 C 843.789062 157.984375 849.199219 152.574219 854.609375 147.164062 L 849.269531 141.820312 Z M 991.53125 141.84375 L 1018.65625 168.972656 L 1045.78125 141.84375 L 1029.546875 125.609375 L 1013.3125 141.84375 L 1018.65625 147.1875 L 1029.546875 136.292969 L 1035.101562 141.847656 L 1018.65625 158.292969 L 1002.210938 141.847656 L 1045.78125 98.28125 L 1018.652344 71.152344 L 991.527344 98.28125 L 1007.761719 114.515625 L 1023.996094 98.28125 L 1018.652344 92.9375 L 1007.761719 103.828125 L 1002.207031 98.277344 L 1018.652344 81.832031 L 1035.097656 98.277344 Z M 1046.015625 119.824219 L 1056.90625 130.71875 L 1051.566406 136.058594 C 1046.15625 130.648438 1040.746094 125.234375 1035.335938 119.824219 L 1051.332031 103.824219 L 1056.675781 109.167969 Z M 991.292969 120.292969 L 980.402344 109.402344 L 985.742188 104.058594 C 991.15625 109.472656 996.5625 114.882812 1001.976562 120.292969 L 985.976562 136.292969 L 980.636719 130.953125 Z M 936.859375 32.921875 L 980.425781 76.488281 L 996.871094 60.042969 L 980.425781 43.597656 L 974.875 49.152344 L 985.765625 60.042969 L 980.425781 65.386719 L 964.191406 49.152344 L 980.425781 32.917969 L 1007.550781 60.042969 L 980.425781 87.171875 L 936.855469 43.601562 L 920.414062 60.046875 L 936.855469 76.492188 L 942.40625 70.941406 L 931.515625 60.046875 L 936.855469 54.707031 L 953.089844 70.941406 L 936.855469 87.175781 L 909.730469 60.046875 Z M 958.878906 87.40625 L 969.539062 98.0625 L 974.878906 92.722656 L 958.878906 76.722656 C 953.46875 82.132812 948.058594 87.546875 942.644531 92.957031 L 947.988281 98.300781 Z M 958.40625 32.683594 L 947.75 22.03125 L 942.410156 27.371094 L 958.40625 43.367188 C 963.820312 37.957031 969.230469 32.546875 974.640625 27.136719 L 969.300781 21.792969 Z M 860.402344 87.171875 L 816.832031 43.605469 L 800.386719 60.050781 L 816.832031 76.492188 L 822.382812 70.941406 L 811.492188 60.050781 L 816.832031 54.707031 L 833.066406 70.941406 L 816.832031 87.175781 L 789.703125 60.050781 L 816.832031 32.921875 L 860.398438 76.488281 L 876.84375 60.046875 L 860.398438 43.601562 L 854.847656 49.152344 L 865.742188 60.046875 L 860.398438 65.386719 L 844.164062 49.152344 L 860.398438 32.917969 L 887.523438 60.046875 Z M 838.378906 32.683594 L 827.726562 22.03125 L 822.382812 27.371094 L 838.378906 43.371094 C 843.792969 37.957031 849.203125 32.546875 854.613281 27.136719 L 849.273438 21.792969 Z M 838.851562 87.410156 L 849.507812 98.0625 L 854.847656 92.722656 L 838.851562 76.722656 C 833.4375 82.132812 828.027344 87.546875 822.617188 92.957031 L 827.957031 98.300781 Z M 751.476562 141.84375 L 795.046875 98.277344 L 778.601562 81.832031 L 762.15625 98.277344 L 767.707031 103.828125 L 778.601562 92.9375 L 783.941406 98.28125 L 767.707031 114.515625 L 751.472656 98.28125 L 778.601562 71.152344 L 805.726562 98.28125 L 762.15625 141.847656 L 778.601562 158.292969 L 795.046875 141.847656 L 789.496094 136.292969 L 778.601562 147.1875 L 773.261719 141.84375 L 789.496094 125.609375 L 805.726562 141.84375 L 778.601562 168.972656 Z M 805.960938 119.824219 L 816.621094 109.167969 L 811.28125 103.824219 L 795.28125 119.824219 C 800.691406 125.234375 806.105469 130.648438 811.515625 136.058594 L 816.855469 130.71875 Z M 751.242188 120.292969 L 740.582031 130.953125 L 745.925781 136.292969 L 761.921875 120.292969 C 756.511719 114.882812 751.101562 109.472656 745.691406 104.058594 L 740.347656 109.402344 Z M 751.242188 120.292969 "/><path style=" stroke:none;fill-rule:evenodd;fill:#134f5c;fill-opacity:1;" d="M 1078.671875 349.671875 L 1068.222656 360.113281 L 1078.671875 360.113281 Z M 718.589844 0.03125 L 729.035156 0.03125 L 718.589844 10.476562 Z M 828.167969 0.03125 L 849.058594 0.03125 L 838.613281 10.476562 Z M 948.199219 0.03125 L 969.09375 0.03125 L 958.644531 10.476562 Z M 1068.226562 0.03125 L 1078.671875 0.03125 L 1078.671875 10.476562 Z M 1078.671875 109.613281 L 1078.671875 130.507812 L 1068.222656 120.0625 Z M 1078.671875 229.640625 L 1078.671875 250.535156 L 1068.222656 240.089844 Z M 969.089844 360.113281 L 948.199219 360.113281 L 958.644531 349.671875 Z M 849.0625 360.113281 L 828.171875 360.113281 L 838.617188 349.671875 Z M 729.035156 360.113281 L 718.589844 360.113281 L 718.589844 349.671875 Z M 718.589844 250.535156 L 718.589844 229.640625 L 729.035156 240.085938 Z M 718.589844 130.507812 L 718.589844 109.613281 L 729.035156 120.058594 Z M 838.617188 130.507812 L 849.0625 120.0625 L 838.617188 109.617188 L 828.167969 120.0625 Z M 958.644531 130.507812 L 969.089844 120.0625 L 958.644531 109.617188 L 948.195312 120.0625 Z M 838.617188 250.535156 L 849.0625 240.089844 L 838.617188 229.644531 L 828.167969 240.089844 Z M 958.644531 250.535156 L 969.089844 240.089844 L 958.644531 229.644531 L 948.195312 240.089844 Z M 958.644531 250.535156 "/></g><g clip-rule="nonzero" clip-path="url(#17e68e42fc)"><path style=" stroke:none;fill-rule:evenodd;fill:#1a5e6e;fill-opacity:1;" d="M 1110.257812 0.03125 L 1120.9375 0.03125 L 1121.171875 0.269531 L 1105.175781 16.265625 L 1099.835938 10.925781 L 1110.492188 0.269531 Z M 1132.511719 0.03125 L 1110.726562 21.816406 L 1137.851562 48.941406 L 1164.976562 21.816406 L 1148.742188 5.582031 L 1132.511719 21.816406 L 1137.851562 27.160156 L 1148.742188 16.265625 L 1154.296875 21.820312 L 1137.851562 38.261719 L 1121.40625 21.820312 L 1143.191406 0.0351562 L 1132.511719 0.0351562 Z M 1154.769531 0.03125 L 1165.449219 0.03125 L 1176.105469 10.6875 L 1170.765625 16.027344 Z M 1230.285156 0.03125 L 1240.964844 0.03125 L 1241.199219 0.269531 L 1225.203125 16.265625 L 1219.863281 10.925781 L 1230.519531 0.269531 Z M 1252.539062 0.03125 L 1230.753906 21.816406 L 1257.878906 48.941406 L 1285.003906 21.816406 L 1268.769531 5.582031 L 1252.535156 21.816406 L 1257.878906 27.160156 L 1268.769531 16.265625 L 1274.324219 21.820312 L 1257.878906 38.261719 L 1241.433594 21.820312 L 1263.21875 0.0351562 L 1252.539062 0.0351562 Z M 1274.792969 0.03125 L 1285.476562 0.03125 L 1296.132812 10.6875 L 1290.792969 16.027344 Z M 1350.3125 0.03125 L 1360.992188 0.03125 L 1361.226562 0.269531 L 1345.226562 16.265625 L 1339.886719 10.925781 L 1350.542969 0.269531 Z M 1372.5625 0.03125 L 1350.78125 21.816406 L 1377.90625 48.941406 L 1405.03125 21.816406 L 1388.796875 5.582031 L 1372.5625 21.816406 L 1377.902344 27.160156 L 1388.796875 16.265625 L 1394.347656 21.820312 L 1377.902344 38.261719 L 1361.457031 21.820312 L 1383.246094 0.0351562 L 1372.5625 0.0351562 Z M 1394.820312 0.03125 L 1405.503906 0.03125 L 1416.160156 10.6875 L 1410.820312 16.027344 Z M 1437.921875 32.449219 L 1437.921875 43.128906 L 1437.683594 43.367188 L 1421.6875 27.371094 L 1427.027344 22.027344 L 1437.683594 32.683594 Z M 1437.921875 54.707031 L 1437.921875 65.390625 L 1416.132812 43.605469 L 1399.691406 60.050781 L 1416.132812 76.492188 L 1421.6875 70.941406 L 1410.792969 60.050781 L 1416.132812 54.707031 L 1432.367188 70.941406 L 1416.132812 87.175781 L 1389.007812 60.050781 L 1416.132812 32.921875 Z M 1437.921875 76.960938 L 1421.921875 92.960938 L 1427.261719 98.300781 L 1437.921875 87.644531 Z M 1437.921875 152.476562 L 1437.921875 163.15625 L 1437.683594 163.394531 L 1421.6875 147.398438 L 1427.027344 142.054688 L 1437.683594 152.710938 Z M 1437.921875 174.734375 L 1416.132812 152.949219 L 1389.007812 180.078125 L 1416.132812 207.203125 L 1432.367188 190.96875 L 1416.132812 174.734375 L 1410.792969 180.078125 L 1421.6875 190.96875 L 1416.132812 196.519531 L 1399.691406 180.078125 L 1416.132812 163.632812 L 1437.921875 185.414062 Z M 1437.921875 196.988281 L 1437.921875 207.667969 L 1427.261719 218.328125 L 1421.921875 212.984375 Z M 1437.921875 272.503906 L 1437.921875 283.183594 L 1437.683594 283.417969 L 1421.6875 267.421875 L 1427.027344 262.082031 L 1437.683594 272.734375 Z M 1437.921875 294.761719 L 1416.132812 272.976562 L 1389.007812 300.101562 L 1416.132812 327.230469 L 1432.367188 310.996094 L 1416.132812 294.761719 L 1410.792969 300.101562 L 1421.6875 310.996094 L 1416.132812 316.546875 L 1399.691406 300.101562 L 1416.132812 283.65625 L 1437.921875 305.441406 Z M 1437.921875 317.015625 L 1437.921875 327.695312 L 1427.261719 338.355469 L 1421.921875 333.011719 Z M 1405.503906 360.113281 L 1394.820312 360.113281 L 1394.585938 359.878906 L 1410.582031 343.878906 L 1415.921875 349.222656 L 1405.265625 359.878906 Z M 1383.246094 360.113281 L 1372.5625 360.113281 L 1394.347656 338.332031 L 1377.902344 321.886719 L 1361.457031 338.332031 L 1367.011719 343.882812 L 1377.902344 332.992188 L 1383.246094 338.332031 L 1367.011719 354.566406 L 1350.777344 338.332031 L 1377.902344 311.207031 L 1405.03125 338.332031 Z M 1360.992188 360.113281 L 1344.992188 344.117188 L 1339.652344 349.460938 L 1350.3125 360.113281 Z M 1285.476562 360.113281 L 1274.792969 360.113281 L 1274.5625 359.878906 L 1290.558594 343.882812 L 1295.898438 349.222656 L 1285.242188 359.878906 Z M 1263.21875 360.113281 L 1285.003906 338.332031 L 1257.878906 311.207031 L 1230.753906 338.332031 L 1246.988281 354.566406 L 1263.222656 338.332031 L 1257.882812 332.988281 L 1246.988281 343.882812 L 1241.4375 338.328125 L 1257.882812 321.882812 L 1274.328125 338.328125 L 1252.542969 360.113281 Z M 1240.964844 360.113281 L 1230.285156 360.113281 L 1219.625 349.460938 L 1224.96875 344.117188 Z M 1165.449219 360.113281 L 1154.769531 360.113281 L 1154.53125 359.878906 L 1170.53125 343.878906 L 1175.871094 349.222656 L 1165.210938 359.878906 Z M 1143.191406 360.113281 L 1164.976562 338.332031 L 1137.851562 311.203125 L 1110.726562 338.332031 L 1126.960938 354.566406 L 1143.191406 338.332031 L 1137.851562 332.988281 L 1126.960938 343.878906 L 1121.40625 338.328125 L 1137.851562 321.882812 L 1154.296875 338.328125 L 1132.511719 360.113281 Z M 1120.9375 360.113281 L 1110.253906 360.113281 L 1099.597656 349.460938 L 1104.9375 344.117188 Z M 1077.839844 327.695312 L 1077.839844 317.015625 L 1078.074219 316.78125 L 1094.070312 332.777344 L 1088.730469 338.121094 L 1078.074219 327.460938 Z M 1077.839844 305.441406 L 1077.839844 294.761719 L 1099.625 316.542969 L 1116.066406 300.097656 L 1099.625 283.652344 L 1094.070312 289.207031 L 1104.964844 300.097656 L 1099.625 305.441406 L 1083.390625 289.207031 L 1099.625 272.972656 L 1126.75 300.097656 L 1099.625 327.222656 Z M 1077.839844 283.183594 L 1093.835938 267.1875 L 1088.496094 261.84375 L 1077.839844 272.5 Z M 1077.839844 207.667969 L 1077.839844 196.988281 L 1078.074219 196.753906 L 1094.074219 212.75 L 1088.734375 218.09375 L 1078.074219 207.4375 Z M 1077.839844 185.414062 L 1099.625 207.199219 L 1126.75 180.074219 L 1099.625 152.945312 L 1083.390625 169.179688 L 1099.625 185.414062 L 1104.964844 180.074219 L 1094.074219 169.179688 L 1099.625 163.628906 L 1116.066406 180.074219 L 1099.625 196.519531 L 1077.839844 174.734375 Z M 1077.839844 163.15625 L 1077.839844 152.476562 L 1088.496094 141.820312 L 1093.835938 147.164062 Z M 1077.839844 87.640625 L 1077.839844 76.960938 L 1078.074219 76.726562 L 1094.070312 92.722656 L 1088.730469 98.066406 L 1078.074219 87.410156 Z M 1077.839844 65.386719 L 1077.839844 54.707031 L 1099.625 76.488281 L 1116.066406 60.042969 L 1099.625 43.597656 L 1094.070312 49.152344 L 1104.964844 60.042969 L 1099.625 65.386719 L 1083.390625 49.152344 L 1099.625 32.917969 L 1126.75 60.042969 L 1099.625 87.171875 Z M 1077.839844 43.128906 L 1093.835938 27.132812 L 1088.496094 21.789062 L 1077.839844 32.445312 Z M 1405.03125 218.300781 L 1361.460938 261.871094 L 1377.90625 278.316406 L 1394.351562 261.871094 L 1388.800781 256.316406 L 1377.90625 267.207031 L 1372.566406 261.867188 L 1388.800781 245.632812 L 1405.035156 261.867188 L 1377.910156 288.992188 L 1350.785156 261.867188 L 1394.351562 218.300781 L 1377.90625 201.855469 L 1361.460938 218.300781 L 1367.015625 223.851562 L 1377.90625 212.957031 L 1383.25 218.300781 L 1367.015625 234.535156 L 1350.78125 218.300781 L 1377.90625 191.175781 Z M 1350.542969 240.320312 L 1339.886719 250.980469 L 1345.226562 256.320312 L 1361.226562 240.320312 C 1355.816406 234.910156 1350.40625 229.5 1344.992188 224.089844 L 1339.652344 229.429688 Z M 1405.265625 239.851562 L 1415.921875 229.195312 L 1410.582031 223.851562 L 1394.585938 239.851562 C 1399.996094 245.261719 1405.410156 250.671875 1410.816406 256.085938 L 1416.15625 250.746094 Z M 1296.109375 272.976562 L 1268.980469 300.101562 L 1296.109375 327.226562 L 1312.34375 310.992188 L 1296.109375 294.757812 L 1290.765625 300.101562 L 1301.660156 310.992188 L 1296.109375 316.546875 L 1279.664062 300.101562 L 1296.109375 283.65625 L 1339.679688 327.222656 L 1366.804688 300.097656 L 1339.679688 272.972656 L 1323.445312 289.207031 L 1339.679688 305.441406 L 1345.019531 300.097656 L 1334.128906 289.207031 L 1339.679688 283.652344 L 1356.125 300.097656 L 1339.679688 316.542969 Z M 1318.128906 327.460938 L 1307.238281 338.355469 L 1301.894531 333.011719 C 1307.304688 327.601562 1312.71875 322.1875 1318.128906 316.777344 L 1334.128906 332.773438 L 1328.789062 338.117188 Z M 1317.65625 272.738281 L 1328.550781 261.847656 L 1333.890625 267.191406 C 1328.480469 272.601562 1323.070312 278.011719 1317.65625 283.421875 L 1301.660156 267.425781 L 1307 262.082031 Z M 1164.976562 218.300781 L 1137.851562 191.175781 L 1110.726562 218.300781 L 1126.960938 234.535156 L 1143.195312 218.300781 L 1137.855469 212.957031 L 1126.960938 223.851562 L 1121.410156 218.300781 L 1137.855469 201.855469 L 1154.296875 218.300781 L 1110.730469 261.867188 L 1137.855469 288.992188 L 1164.980469 261.867188 L 1148.746094 245.632812 L 1132.515625 261.867188 L 1137.855469 267.207031 L 1148.746094 256.316406 L 1154.296875 261.871094 L 1137.855469 278.316406 L 1121.410156 261.871094 Z M 1110.492188 240.320312 L 1099.597656 229.429688 L 1104.9375 224.089844 C 1110.351562 229.5 1115.761719 234.910156 1121.171875 240.320312 L 1105.175781 256.320312 L 1099.835938 250.980469 Z M 1165.214844 239.851562 L 1176.105469 250.746094 L 1170.765625 256.085938 C 1165.355469 250.671875 1159.941406 245.261719 1154.53125 239.851562 L 1170.53125 223.851562 L 1175.871094 229.195312 Z M 1219.652344 327.226562 L 1176.082031 283.65625 L 1159.636719 300.101562 L 1176.082031 316.546875 L 1181.632812 310.996094 L 1170.742188 300.101562 L 1176.082031 294.761719 L 1192.316406 310.996094 L 1176.082031 327.230469 L 1148.953125 300.101562 L 1176.082031 272.976562 L 1219.648438 316.542969 L 1236.09375 300.097656 L 1219.648438 283.652344 L 1214.097656 289.207031 L 1224.992188 300.097656 L 1219.648438 305.441406 L 1203.414062 289.207031 L 1219.648438 272.972656 L 1246.773438 300.097656 Z M 1197.628906 272.738281 L 1186.976562 262.082031 L 1181.632812 267.425781 L 1197.628906 283.421875 C 1203.042969 278.011719 1208.453125 272.601562 1213.863281 267.191406 L 1208.523438 261.847656 Z M 1198.101562 327.460938 L 1208.757812 338.117188 L 1214.097656 332.773438 L 1198.101562 316.777344 C 1192.6875 322.1875 1187.277344 327.601562 1181.867188 333.011719 L 1187.207031 338.355469 Z M 1285.003906 98.273438 L 1241.4375 141.84375 L 1257.882812 158.289062 L 1274.328125 141.84375 L 1268.773438 136.292969 L 1257.882812 147.183594 L 1252.542969 141.839844 L 1268.773438 125.605469 L 1285.007812 141.839844 L 1257.882812 168.964844 L 1230.757812 141.839844 L 1274.328125 98.273438 L 1257.882812 81.828125 L 1241.4375 98.273438 L 1246.988281 103.824219 L 1257.882812 92.933594 L 1263.222656 98.273438 L 1246.988281 114.507812 L 1230.753906 98.273438 L 1257.878906 71.148438 Z M 1230.519531 120.296875 L 1219.863281 130.953125 L 1225.207031 136.292969 L 1241.199219 120.296875 C 1235.789062 114.886719 1230.378906 109.472656 1224.96875 104.0625 L 1219.625 109.402344 Z M 1285.242188 119.828125 L 1295.898438 109.167969 L 1290.558594 103.828125 L 1274.5625 119.828125 C 1279.96875 125.238281 1285.382812 130.648438 1290.792969 136.058594 L 1296.136719 130.71875 Z M 1339.679688 207.199219 L 1366.804688 180.074219 L 1339.679688 152.945312 L 1323.445312 169.179688 L 1339.679688 185.414062 L 1345.019531 180.074219 L 1334.125 169.179688 L 1339.679688 163.628906 L 1356.125 180.074219 L 1339.679688 196.519531 L 1296.109375 152.949219 L 1268.980469 180.078125 L 1296.109375 207.203125 L 1312.34375 190.96875 L 1296.109375 174.734375 L 1290.765625 180.078125 L 1301.660156 190.96875 L 1296.109375 196.519531 L 1279.664062 180.078125 L 1296.109375 163.632812 Z M 1317.65625 152.710938 L 1328.550781 141.820312 L 1333.894531 147.164062 C 1328.480469 152.574219 1323.070312 157.984375 1317.660156 163.398438 L 1301.664062 147.398438 L 1307.003906 142.054688 Z M 1318.128906 207.4375 L 1307.238281 218.328125 L 1301.894531 212.984375 C 1307.304688 207.574219 1312.71875 202.160156 1318.128906 196.75 L 1334.128906 212.746094 L 1328.789062 218.089844 Z M 1230.753906 261.871094 L 1274.324219 218.304688 L 1257.878906 201.859375 L 1241.433594 218.304688 L 1246.984375 223.859375 L 1257.878906 212.964844 L 1263.21875 218.308594 L 1246.984375 234.542969 L 1230.75 218.308594 L 1257.875 191.179688 L 1285.003906 218.308594 L 1241.433594 261.875 L 1257.878906 278.320312 L 1274.324219 261.875 L 1268.769531 256.320312 L 1257.878906 267.214844 L 1252.535156 261.871094 L 1268.769531 245.636719 L 1285.003906 261.871094 L 1257.878906 289 Z M 1285.238281 239.851562 L 1295.898438 229.195312 L 1290.554688 223.855469 L 1274.554688 239.851562 C 1279.96875 245.261719 1285.378906 250.671875 1290.789062 256.085938 L 1296.128906 250.746094 Z M 1230.519531 240.320312 L 1219.863281 250.980469 L 1225.203125 256.320312 L 1241.199219 240.320312 C 1235.789062 234.910156 1230.378906 229.5 1224.964844 224.089844 L 1219.625 229.429688 Z M 1176.082031 152.949219 L 1219.652344 196.515625 L 1236.097656 180.074219 L 1219.652344 163.628906 L 1214.101562 169.179688 L 1224.992188 180.074219 L 1219.652344 185.414062 L 1203.417969 169.179688 L 1219.652344 152.945312 L 1246.777344 180.074219 L 1219.652344 207.199219 L 1176.082031 163.632812 L 1159.636719 180.078125 L 1176.082031 196.519531 L 1181.632812 190.96875 L 1170.742188 180.078125 L 1176.085938 174.734375 L 1192.320312 190.96875 L 1176.085938 207.203125 L 1148.960938 180.078125 Z M 1198.101562 207.433594 L 1208.761719 218.089844 L 1214.101562 212.746094 L 1198.101562 196.75 C 1192.691406 202.160156 1187.28125 207.574219 1181.867188 212.984375 L 1187.207031 218.328125 Z M 1197.628906 152.710938 L 1186.972656 142.054688 L 1181.628906 147.398438 L 1197.628906 163.398438 C 1203.039062 157.984375 1208.449219 152.574219 1213.859375 147.164062 L 1208.519531 141.820312 Z M 1350.78125 141.84375 L 1377.90625 168.972656 L 1405.03125 141.84375 L 1388.796875 125.609375 L 1372.5625 141.84375 L 1377.90625 147.1875 L 1388.796875 136.292969 L 1394.351562 141.847656 L 1377.90625 158.292969 L 1361.460938 141.847656 L 1405.03125 98.28125 L 1377.902344 71.152344 L 1350.777344 98.28125 L 1367.011719 114.515625 L 1383.246094 98.28125 L 1377.902344 92.9375 L 1367.011719 103.828125 L 1361.457031 98.277344 L 1377.902344 81.832031 L 1394.347656 98.277344 Z M 1405.265625 119.824219 L 1416.15625 130.71875 L 1410.816406 136.058594 C 1405.40625 130.648438 1399.996094 125.234375 1394.585938 119.824219 L 1410.582031 103.824219 L 1415.921875 109.167969 Z M 1350.542969 120.292969 L 1339.652344 109.402344 L 1344.992188 104.058594 C 1350.40625 109.472656 1355.8125 114.882812 1361.226562 120.292969 L 1345.226562 136.292969 L 1339.886719 130.953125 Z M 1296.109375 32.921875 L 1339.675781 76.488281 L 1356.121094 60.042969 L 1339.675781 43.597656 L 1334.125 49.152344 L 1345.015625 60.042969 L 1339.675781 65.386719 L 1323.441406 49.152344 L 1339.675781 32.917969 L 1366.800781 60.042969 L 1339.675781 87.171875 L 1296.105469 43.601562 L 1279.664062 60.046875 L 1296.105469 76.492188 L 1301.65625 70.941406 L 1290.765625 60.046875 L 1296.105469 54.707031 L 1312.339844 70.941406 L 1296.105469 87.175781 L 1268.980469 60.046875 Z M 1318.128906 87.40625 L 1328.789062 98.0625 L 1334.128906 92.722656 L 1318.128906 76.722656 C 1312.71875 82.132812 1307.308594 87.546875 1301.894531 92.957031 L 1307.238281 98.300781 Z M 1317.65625 32.683594 L 1307 22.03125 L 1301.660156 27.371094 L 1317.65625 43.367188 C 1323.070312 37.957031 1328.480469 32.546875 1333.890625 27.136719 L 1328.550781 21.792969 Z M 1219.652344 87.171875 L 1176.082031 43.605469 L 1159.636719 60.050781 L 1176.082031 76.492188 L 1181.632812 70.941406 L 1170.742188 60.050781 L 1176.082031 54.707031 L 1192.316406 70.941406 L 1176.082031 87.175781 L 1148.953125 60.050781 L 1176.082031 32.921875 L 1219.648438 76.488281 L 1236.09375 60.046875 L 1219.648438 43.601562 L 1214.097656 49.152344 L 1224.992188 60.046875 L 1219.648438 65.386719 L 1203.414062 49.152344 L 1219.648438 32.917969 L 1246.773438 60.046875 Z M 1197.628906 32.683594 L 1186.976562 22.03125 L 1181.632812 27.371094 L 1197.628906 43.371094 C 1203.042969 37.957031 1208.453125 32.546875 1213.863281 27.136719 L 1208.523438 21.792969 Z M 1198.101562 87.410156 L 1208.757812 98.0625 L 1214.097656 92.722656 L 1198.101562 76.722656 C 1192.6875 82.132812 1187.277344 87.546875 1181.867188 92.957031 L 1187.207031 98.300781 Z M 1110.726562 141.84375 L 1154.296875 98.277344 L 1137.851562 81.832031 L 1121.40625 98.277344 L 1126.957031 103.828125 L 1137.851562 92.9375 L 1143.191406 98.28125 L 1126.957031 114.515625 L 1110.722656 98.28125 L 1137.851562 71.152344 L 1164.976562 98.28125 L 1121.40625 141.847656 L 1137.851562 158.292969 L 1154.296875 141.847656 L 1148.746094 136.292969 L 1137.851562 147.1875 L 1132.511719 141.84375 L 1148.746094 125.609375 L 1164.976562 141.84375 L 1137.851562 168.972656 Z M 1165.210938 119.824219 L 1175.871094 109.167969 L 1170.53125 103.824219 L 1154.53125 119.824219 C 1159.941406 125.234375 1165.355469 130.648438 1170.765625 136.058594 L 1176.105469 130.71875 Z M 1110.492188 120.292969 L 1099.832031 130.953125 L 1105.175781 136.292969 L 1121.171875 120.292969 C 1115.761719 114.882812 1110.351562 109.472656 1104.9375 104.058594 L 1099.597656 109.402344 Z M 1110.492188 120.292969 "/><path style=" stroke:none;fill-rule:evenodd;fill:#134f5c;fill-opacity:1;" d="M 1437.921875 349.671875 L 1427.472656 360.113281 L 1437.921875 360.113281 Z M 1077.839844 0.03125 L 1088.285156 0.03125 L 1077.839844 10.476562 Z M 1187.417969 0.03125 L 1208.308594 0.03125 L 1197.863281 10.476562 Z M 1307.449219 0.03125 L 1328.34375 0.03125 L 1317.894531 10.476562 Z M 1427.476562 0.03125 L 1437.921875 0.03125 L 1437.921875 10.476562 Z M 1437.921875 109.613281 L 1437.921875 130.507812 L 1427.472656 120.0625 Z M 1437.921875 229.640625 L 1437.921875 250.535156 L 1427.472656 240.089844 Z M 1328.339844 360.113281 L 1307.449219 360.113281 L 1317.894531 349.671875 Z M 1208.3125 360.113281 L 1187.421875 360.113281 L 1197.867188 349.671875 Z M 1088.285156 360.113281 L 1077.839844 360.113281 L 1077.839844 349.671875 Z M 1077.839844 250.535156 L 1077.839844 229.640625 L 1088.285156 240.085938 Z M 1077.839844 130.507812 L 1077.839844 109.613281 L 1088.285156 120.058594 Z M 1197.867188 130.507812 L 1208.3125 120.0625 L 1197.867188 109.617188 L 1187.417969 120.0625 Z M 1317.894531 130.507812 L 1328.339844 120.0625 L 1317.894531 109.617188 L 1307.445312 120.0625 Z M 1197.867188 250.535156 L 1208.3125 240.089844 L 1197.867188 229.644531 L 1187.417969 240.089844 Z M 1317.894531 250.535156 L 1328.339844 240.089844 L 1317.894531 229.644531 L 1307.445312 240.089844 Z M 1317.894531 250.535156 "/></g><path style=" stroke:none;fill-rule:evenodd;fill:#1a5e6e;fill-opacity:1;" d="M 1469.507812 0.03125 L 1480.1875 0.03125 L 1480.421875 0.269531 L 1464.425781 16.265625 L 1459.085938 10.925781 L 1469.742188 0.269531 Z M 1491.761719 0.03125 L 1469.976562 21.816406 L 1497.101562 48.941406 L 1524.226562 21.816406 L 1507.992188 5.582031 L 1491.761719 21.816406 L 1497.101562 27.160156 L 1507.992188 16.265625 L 1513.546875 21.820312 L 1497.101562 38.261719 L 1480.65625 21.820312 L 1502.441406 0.0351562 L 1491.761719 0.0351562 Z M 1514.019531 0.03125 L 1524.699219 0.03125 L 1535.355469 10.6875 L 1530.015625 16.027344 Z M 1589.535156 0.03125 L 1600.214844 0.03125 L 1600.449219 0.269531 L 1584.453125 16.265625 L 1579.113281 10.925781 L 1589.769531 0.269531 Z M 1611.789062 0.03125 L 1590.003906 21.816406 L 1617.128906 48.941406 L 1644.253906 21.816406 L 1628.019531 5.582031 L 1611.785156 21.816406 L 1617.128906 27.160156 L 1628.019531 16.265625 L 1633.574219 21.820312 L 1617.128906 38.261719 L 1600.683594 21.820312 L 1622.46875 0.0351562 L 1611.789062 0.0351562 Z M 1634.042969 0.03125 L 1644.726562 0.03125 L 1655.382812 10.6875 L 1650.042969 16.027344 Z M 1709.5625 0.03125 L 1720.242188 0.03125 L 1720.476562 0.269531 L 1704.476562 16.265625 L 1699.136719 10.925781 L 1709.792969 0.269531 Z M 1731.8125 0.03125 L 1710.03125 21.816406 L 1737.15625 48.941406 L 1764.28125 21.816406 L 1748.046875 5.582031 L 1731.8125 21.816406 L 1737.152344 27.160156 L 1748.046875 16.265625 L 1753.597656 21.820312 L 1737.152344 38.261719 L 1720.707031 21.820312 L 1742.496094 0.0351562 L 1731.8125 0.0351562 Z M 1754.070312 0.03125 L 1764.753906 0.03125 L 1775.410156 10.6875 L 1770.070312 16.027344 Z M 1797.171875 32.449219 L 1797.171875 43.128906 L 1796.933594 43.367188 L 1780.9375 27.371094 L 1786.277344 22.027344 L 1796.933594 32.683594 Z M 1797.171875 54.707031 L 1797.171875 65.390625 L 1775.382812 43.605469 L 1758.941406 60.050781 L 1775.382812 76.492188 L 1780.9375 70.941406 L 1770.042969 60.050781 L 1775.382812 54.707031 L 1791.617188 70.941406 L 1775.382812 87.175781 L 1748.257812 60.050781 L 1775.382812 32.921875 Z M 1797.171875 76.960938 L 1781.171875 92.960938 L 1786.511719 98.300781 L 1797.171875 87.644531 Z M 1797.171875 152.476562 L 1797.171875 163.15625 L 1796.933594 163.394531 L 1780.9375 147.398438 L 1786.277344 142.054688 L 1796.933594 152.710938 Z M 1797.171875 174.734375 L 1775.382812 152.949219 L 1748.257812 180.078125 L 1775.382812 207.203125 L 1791.617188 190.96875 L 1775.382812 174.734375 L 1770.042969 180.078125 L 1780.9375 190.96875 L 1775.382812 196.519531 L 1758.941406 180.078125 L 1775.382812 163.632812 L 1797.171875 185.414062 Z M 1797.171875 196.988281 L 1797.171875 207.667969 L 1786.511719 218.328125 L 1781.171875 212.984375 Z M 1797.171875 272.503906 L 1797.171875 283.183594 L 1796.933594 283.417969 L 1780.9375 267.421875 L 1786.277344 262.082031 L 1796.933594 272.734375 Z M 1797.171875 294.761719 L 1775.382812 272.976562 L 1748.257812 300.101562 L 1775.382812 327.230469 L 1791.617188 310.996094 L 1775.382812 294.761719 L 1770.042969 300.101562 L 1780.9375 310.996094 L 1775.382812 316.546875 L 1758.941406 300.101562 L 1775.382812 283.65625 L 1797.171875 305.441406 Z M 1797.171875 317.015625 L 1797.171875 327.695312 L 1786.511719 338.355469 L 1781.171875 333.011719 Z M 1764.753906 360.113281 L 1754.070312 360.113281 L 1753.835938 359.878906 L 1769.832031 343.878906 L 1775.171875 349.222656 L 1764.515625 359.878906 Z M 1742.496094 360.113281 L 1731.8125 360.113281 L 1753.597656 338.332031 L 1737.152344 321.886719 L 1720.707031 338.332031 L 1726.261719 343.882812 L 1737.152344 332.992188 L 1742.496094 338.332031 L 1726.261719 354.566406 L 1710.027344 338.332031 L 1737.152344 311.207031 L 1764.28125 338.332031 Z M 1720.242188 360.113281 L 1704.242188 344.117188 L 1698.902344 349.460938 L 1709.5625 360.113281 Z M 1644.726562 360.113281 L 1634.042969 360.113281 L 1633.8125 359.878906 L 1649.804688 343.882812 L 1655.148438 349.222656 L 1644.492188 359.878906 Z M 1622.46875 360.113281 L 1644.253906 338.332031 L 1617.128906 311.207031 L 1590.003906 338.332031 L 1606.238281 354.566406 L 1622.472656 338.332031 L 1617.132812 332.988281 L 1606.238281 343.882812 L 1600.6875 338.328125 L 1617.132812 321.882812 L 1633.578125 338.328125 L 1611.792969 360.113281 Z M 1600.214844 360.113281 L 1589.535156 360.113281 L 1578.875 349.460938 L 1584.21875 344.117188 Z M 1524.699219 360.113281 L 1514.019531 360.113281 L 1513.78125 359.878906 L 1529.78125 343.878906 L 1535.121094 349.222656 L 1524.460938 359.878906 Z M 1502.441406 360.113281 L 1524.226562 338.332031 L 1497.101562 311.203125 L 1469.976562 338.332031 L 1486.210938 354.566406 L 1502.441406 338.332031 L 1497.101562 332.988281 L 1486.210938 343.878906 L 1480.65625 338.328125 L 1497.101562 321.882812 L 1513.546875 338.328125 L 1491.761719 360.113281 Z M 1480.1875 360.113281 L 1469.503906 360.113281 L 1458.847656 349.460938 L 1464.1875 344.117188 Z M 1437.089844 327.695312 L 1437.089844 317.015625 L 1437.324219 316.78125 L 1453.320312 332.777344 L 1447.980469 338.121094 L 1437.324219 327.460938 Z M 1437.089844 305.441406 L 1437.089844 294.761719 L 1458.875 316.542969 L 1475.316406 300.097656 L 1458.875 283.652344 L 1453.320312 289.207031 L 1464.214844 300.097656 L 1458.875 305.441406 L 1442.640625 289.207031 L 1458.875 272.972656 L 1486 300.097656 L 1458.875 327.222656 Z M 1437.089844 283.183594 L 1453.085938 267.1875 L 1447.746094 261.84375 L 1437.089844 272.5 Z M 1437.089844 207.667969 L 1437.089844 196.988281 L 1437.324219 196.753906 L 1453.324219 212.75 L 1447.984375 218.09375 L 1437.324219 207.4375 Z M 1437.089844 185.414062 L 1458.875 207.199219 L 1486 180.074219 L 1458.875 152.945312 L 1442.640625 169.179688 L 1458.875 185.414062 L 1464.214844 180.074219 L 1453.324219 169.179688 L 1458.875 163.628906 L 1475.316406 180.074219 L 1458.875 196.519531 L 1437.089844 174.734375 Z M 1437.089844 163.15625 L 1437.089844 152.476562 L 1447.746094 141.820312 L 1453.085938 147.164062 Z M 1437.089844 87.640625 L 1437.089844 76.960938 L 1437.324219 76.726562 L 1453.320312 92.722656 L 1447.980469 98.066406 L 1437.324219 87.410156 Z M 1437.089844 65.386719 L 1437.089844 54.707031 L 1458.875 76.488281 L 1475.316406 60.042969 L 1458.875 43.597656 L 1453.320312 49.152344 L 1464.214844 60.042969 L 1458.875 65.386719 L 1442.640625 49.152344 L 1458.875 32.917969 L 1486 60.042969 L 1458.875 87.171875 Z M 1437.089844 43.128906 L 1453.085938 27.132812 L 1447.746094 21.789062 L 1437.089844 32.445312 Z M 1764.28125 218.300781 L 1720.710938 261.871094 L 1737.15625 278.316406 L 1753.601562 261.871094 L 1748.050781 256.316406 L 1737.15625 267.207031 L 1731.816406 261.867188 L 1748.050781 245.632812 L 1764.285156 261.867188 L 1737.160156 288.992188 L 1710.035156 261.867188 L 1753.601562 218.300781 L 1737.15625 201.855469 L 1720.710938 218.300781 L 1726.265625 223.851562 L 1737.15625 212.957031 L 1742.5 218.300781 L 1726.265625 234.535156 L 1710.03125 218.300781 L 1737.15625 191.175781 Z M 1709.792969 240.320312 L 1699.136719 250.980469 L 1704.476562 256.320312 L 1720.476562 240.320312 C 1715.066406 234.910156 1709.65625 229.5 1704.242188 224.089844 L 1698.902344 229.429688 Z M 1764.515625 239.851562 L 1775.171875 229.195312 L 1769.832031 223.851562 L 1753.835938 239.851562 C 1759.246094 245.261719 1764.660156 250.671875 1770.066406 256.085938 L 1775.40625 250.746094 Z M 1655.359375 272.976562 L 1628.230469 300.101562 L 1655.359375 327.226562 L 1671.59375 310.992188 L 1655.359375 294.757812 L 1650.015625 300.101562 L 1660.910156 310.992188 L 1655.359375 316.546875 L 1638.914062 300.101562 L 1655.359375 283.65625 L 1698.929688 327.222656 L 1726.054688 300.097656 L 1698.929688 272.972656 L 1682.695312 289.207031 L 1698.929688 305.441406 L 1704.269531 300.097656 L 1693.378906 289.207031 L 1698.929688 283.652344 L 1715.375 300.097656 L 1698.929688 316.542969 Z M 1677.378906 327.460938 L 1666.488281 338.355469 L 1661.144531 333.011719 C 1666.554688 327.601562 1671.96875 322.1875 1677.378906 316.777344 L 1693.378906 332.773438 L 1688.039062 338.117188 Z M 1676.90625 272.738281 L 1687.800781 261.847656 L 1693.140625 267.191406 C 1687.730469 272.601562 1682.320312 278.011719 1676.90625 283.421875 L 1660.910156 267.425781 L 1666.25 262.082031 Z M 1524.226562 218.300781 L 1497.101562 191.175781 L 1469.976562 218.300781 L 1486.210938 234.535156 L 1502.445312 218.300781 L 1497.105469 212.957031 L 1486.210938 223.851562 L 1480.660156 218.300781 L 1497.105469 201.855469 L 1513.546875 218.300781 L 1469.980469 261.867188 L 1497.105469 288.992188 L 1524.230469 261.867188 L 1507.996094 245.632812 L 1491.765625 261.867188 L 1497.105469 267.207031 L 1507.996094 256.316406 L 1513.546875 261.871094 L 1497.105469 278.316406 L 1480.660156 261.871094 Z M 1469.742188 240.320312 L 1458.847656 229.429688 L 1464.1875 224.089844 C 1469.601562 229.5 1475.011719 234.910156 1480.421875 240.320312 L 1464.425781 256.320312 L 1459.085938 250.980469 Z M 1524.464844 239.851562 L 1535.355469 250.746094 L 1530.015625 256.085938 C 1524.605469 250.671875 1519.191406 245.261719 1513.78125 239.851562 L 1529.78125 223.851562 L 1535.121094 229.195312 Z M 1578.902344 327.226562 L 1535.332031 283.65625 L 1518.886719 300.101562 L 1535.332031 316.546875 L 1540.882812 310.996094 L 1529.992188 300.101562 L 1535.332031 294.761719 L 1551.566406 310.996094 L 1535.332031 327.230469 L 1508.203125 300.101562 L 1535.332031 272.976562 L 1578.898438 316.542969 L 1595.34375 300.097656 L 1578.898438 283.652344 L 1573.347656 289.207031 L 1584.242188 300.097656 L 1578.898438 305.441406 L 1562.664062 289.207031 L 1578.898438 272.972656 L 1606.023438 300.097656 Z M 1556.878906 272.738281 L 1546.226562 262.082031 L 1540.882812 267.425781 L 1556.878906 283.421875 C 1562.292969 278.011719 1567.703125 272.601562 1573.113281 267.191406 L 1567.773438 261.847656 Z M 1557.351562 327.460938 L 1568.007812 338.117188 L 1573.347656 332.773438 L 1557.351562 316.777344 C 1551.9375 322.1875 1546.527344 327.601562 1541.117188 333.011719 L 1546.457031 338.355469 Z M 1644.253906 98.273438 L 1600.6875 141.84375 L 1617.132812 158.289062 L 1633.578125 141.84375 L 1628.023438 136.292969 L 1617.132812 147.183594 L 1611.792969 141.839844 L 1628.023438 125.605469 L 1644.257812 141.839844 L 1617.132812 168.964844 L 1590.007812 141.839844 L 1633.578125 98.273438 L 1617.132812 81.828125 L 1600.6875 98.273438 L 1606.238281 103.824219 L 1617.132812 92.933594 L 1622.472656 98.273438 L 1606.238281 114.507812 L 1590.003906 98.273438 L 1617.128906 71.148438 Z M 1589.769531 120.296875 L 1579.113281 130.953125 L 1584.457031 136.292969 L 1600.449219 120.296875 C 1595.039062 114.886719 1589.628906 109.472656 1584.21875 104.0625 L 1578.875 109.402344 Z M 1644.492188 119.828125 L 1655.148438 109.167969 L 1649.804688 103.828125 L 1633.8125 119.828125 C 1639.21875 125.238281 1644.632812 130.648438 1650.042969 136.058594 L 1655.386719 130.71875 Z M 1698.929688 207.199219 L 1726.054688 180.074219 L 1698.929688 152.945312 L 1682.695312 169.179688 L 1698.929688 185.414062 L 1704.269531 180.074219 L 1693.375 169.179688 L 1698.929688 163.628906 L 1715.375 180.074219 L 1698.929688 196.519531 L 1655.359375 152.949219 L 1628.230469 180.078125 L 1655.359375 207.203125 L 1671.59375 190.96875 L 1655.359375 174.734375 L 1650.015625 180.078125 L 1660.910156 190.96875 L 1655.359375 196.519531 L 1638.914062 180.078125 L 1655.359375 163.632812 Z M 1676.90625 152.710938 L 1687.800781 141.820312 L 1693.144531 147.164062 C 1687.730469 152.574219 1682.320312 157.984375 1676.910156 163.398438 L 1660.914062 147.398438 L 1666.253906 142.054688 Z M 1677.378906 207.4375 L 1666.488281 218.328125 L 1661.144531 212.984375 C 1666.554688 207.574219 1671.96875 202.160156 1677.378906 196.75 L 1693.378906 212.746094 L 1688.039062 218.089844 Z M 1590.003906 261.871094 L 1633.574219 218.304688 L 1617.128906 201.859375 L 1600.683594 218.304688 L 1606.234375 223.859375 L 1617.128906 212.964844 L 1622.46875 218.308594 L 1606.234375 234.542969 L 1590 218.308594 L 1617.125 191.179688 L 1644.253906 218.308594 L 1600.683594 261.875 L 1617.128906 278.320312 L 1633.574219 261.875 L 1628.019531 256.320312 L 1617.128906 267.214844 L 1611.785156 261.871094 L 1628.019531 245.636719 L 1644.253906 261.871094 L 1617.128906 289 Z M 1644.488281 239.851562 L 1655.148438 229.195312 L 1649.804688 223.855469 L 1633.804688 239.851562 C 1639.21875 245.261719 1644.628906 250.671875 1650.039062 256.085938 L 1655.378906 250.746094 Z M 1589.769531 240.320312 L 1579.113281 250.980469 L 1584.453125 256.320312 L 1600.449219 240.320312 C 1595.039062 234.910156 1589.628906 229.5 1584.214844 224.089844 L 1578.875 229.429688 Z M 1535.332031 152.949219 L 1578.902344 196.515625 L 1595.347656 180.074219 L 1578.902344 163.628906 L 1573.351562 169.179688 L 1584.242188 180.074219 L 1578.902344 185.414062 L 1562.667969 169.179688 L 1578.902344 152.945312 L 1606.027344 180.074219 L 1578.902344 207.199219 L 1535.332031 163.632812 L 1518.886719 180.078125 L 1535.332031 196.519531 L 1540.882812 190.96875 L 1529.992188 180.078125 L 1535.335938 174.734375 L 1551.570312 190.96875 L 1535.335938 207.203125 L 1508.210938 180.078125 Z M 1557.351562 207.433594 L 1568.011719 218.089844 L 1573.351562 212.746094 L 1557.351562 196.75 C 1551.941406 202.160156 1546.53125 207.574219 1541.117188 212.984375 L 1546.457031 218.328125 Z M 1556.878906 152.710938 L 1546.222656 142.054688 L 1540.878906 147.398438 L 1556.878906 163.398438 C 1562.289062 157.984375 1567.699219 152.574219 1573.109375 147.164062 L 1567.769531 141.820312 Z M 1710.03125 141.84375 L 1737.15625 168.972656 L 1764.28125 141.84375 L 1748.046875 125.609375 L 1731.8125 141.84375 L 1737.15625 147.1875 L 1748.046875 136.292969 L 1753.601562 141.847656 L 1737.15625 158.292969 L 1720.710938 141.847656 L 1764.28125 98.28125 L 1737.152344 71.152344 L 1710.027344 98.28125 L 1726.261719 114.515625 L 1742.496094 98.28125 L 1737.152344 92.9375 L 1726.261719 103.828125 L 1720.707031 98.277344 L 1737.152344 81.832031 L 1753.597656 98.277344 Z M 1764.515625 119.824219 L 1775.40625 130.71875 L 1770.066406 136.058594 C 1764.65625 130.648438 1759.246094 125.234375 1753.835938 119.824219 L 1769.832031 103.824219 L 1775.171875 109.167969 Z M 1709.792969 120.292969 L 1698.902344 109.402344 L 1704.242188 104.058594 C 1709.65625 109.472656 1715.0625 114.882812 1720.476562 120.292969 L 1704.476562 136.292969 L 1699.136719 130.953125 Z M 1655.359375 32.921875 L 1698.925781 76.488281 L 1715.371094 60.042969 L 1698.925781 43.597656 L 1693.375 49.152344 L 1704.265625 60.042969 L 1698.925781 65.386719 L 1682.691406 49.152344 L 1698.925781 32.917969 L 1726.050781 60.042969 L 1698.925781 87.171875 L 1655.355469 43.601562 L 1638.914062 60.046875 L 1655.355469 76.492188 L 1660.90625 70.941406 L 1650.015625 60.046875 L 1655.355469 54.707031 L 1671.589844 70.941406 L 1655.355469 87.175781 L 1628.230469 60.046875 Z M 1677.378906 87.40625 L 1688.039062 98.0625 L 1693.378906 92.722656 L 1677.378906 76.722656 C 1671.96875 82.132812 1666.558594 87.546875 1661.144531 92.957031 L 1666.488281 98.300781 Z M 1676.90625 32.683594 L 1666.25 22.03125 L 1660.910156 27.371094 L 1676.90625 43.367188 C 1682.320312 37.957031 1687.730469 32.546875 1693.140625 27.136719 L 1687.800781 21.792969 Z M 1578.902344 87.171875 L 1535.332031 43.605469 L 1518.886719 60.050781 L 1535.332031 76.492188 L 1540.882812 70.941406 L 1529.992188 60.050781 L 1535.332031 54.707031 L 1551.566406 70.941406 L 1535.332031 87.175781 L 1508.203125 60.050781 L 1535.332031 32.921875 L 1578.898438 76.488281 L 1595.34375 60.046875 L 1578.898438 43.601562 L 1573.347656 49.152344 L 1584.242188 60.046875 L 1578.898438 65.386719 L 1562.664062 49.152344 L 1578.898438 32.917969 L 1606.023438 60.046875 Z M 1556.878906 32.683594 L 1546.226562 22.03125 L 1540.882812 27.371094 L 1556.878906 43.371094 C 1562.292969 37.957031 1567.703125 32.546875 1573.113281 27.136719 L 1567.773438 21.792969 Z M 1557.351562 87.410156 L 1568.007812 98.0625 L 1573.347656 92.722656 L 1557.351562 76.722656 C 1551.9375 82.132812 1546.527344 87.546875 1541.117188 92.957031 L 1546.457031 98.300781 Z M 1469.976562 141.84375 L 1513.546875 98.277344 L 1497.101562 81.832031 L 1480.65625 98.277344 L 1486.207031 103.828125 L 1497.101562 92.9375 L 1502.441406 98.28125 L 1486.207031 114.515625 L 1469.972656 98.28125 L 1497.101562 71.152344 L 1524.226562 98.28125 L 1480.65625 141.847656 L 1497.101562 158.292969 L 1513.546875 141.847656 L 1507.996094 136.292969 L 1497.101562 147.1875 L 1491.761719 141.84375 L 1507.996094 125.609375 L 1524.226562 141.84375 L 1497.101562 168.972656 Z M 1524.460938 119.824219 L 1535.121094 109.167969 L 1529.78125 103.824219 L 1513.78125 119.824219 C 1519.191406 125.234375 1524.605469 130.648438 1530.015625 136.058594 L 1535.355469 130.71875 Z M 1469.742188 120.292969 L 1459.082031 130.953125 L 1464.425781 136.292969 L 1480.421875 120.292969 C 1475.011719 114.882812 1469.601562 109.472656 1464.1875 104.058594 L 1458.847656 109.402344 Z M 1469.742188 120.292969 "/><path style=" stroke:none;fill-rule:evenodd;fill:#134f5c;fill-opacity:1;" d="M 1797.171875 349.671875 L 1786.722656 360.113281 L 1797.171875 360.113281 Z M 1437.089844 0.03125 L 1447.535156 0.03125 L 1437.089844 10.476562 Z M 1546.667969 0.03125 L 1567.558594 0.03125 L 1557.113281 10.476562 Z M 1666.699219 0.03125 L 1687.59375 0.03125 L 1677.144531 10.476562 Z M 1786.726562 0.03125 L 1797.171875 0.03125 L 1797.171875 10.476562 Z M 1797.171875 109.613281 L 1797.171875 130.507812 L 1786.722656 120.0625 Z M 1797.171875 229.640625 L 1797.171875 250.535156 L 1786.722656 240.089844 Z M 1687.589844 360.113281 L 1666.699219 360.113281 L 1677.144531 349.671875 Z M 1567.5625 360.113281 L 1546.671875 360.113281 L 1557.117188 349.671875 Z M 1447.535156 360.113281 L 1437.089844 360.113281 L 1437.089844 349.671875 Z M 1437.089844 250.535156 L 1437.089844 229.640625 L 1447.535156 240.085938 Z M 1437.089844 130.507812 L 1437.089844 109.613281 L 1447.535156 120.058594 Z M 1557.117188 130.507812 L 1567.5625 120.0625 L 1557.117188 109.617188 L 1546.667969 120.0625 Z M 1677.144531 130.507812 L 1687.589844 120.0625 L 1677.144531 109.617188 L 1666.695312 120.0625 Z M 1557.117188 250.535156 L 1567.5625 240.089844 L 1557.117188 229.644531 L 1546.667969 240.089844 Z M 1677.144531 250.535156 L 1687.589844 240.089844 L 1677.144531 229.644531 L 1666.695312 240.089844 Z M 1677.144531 250.535156 "/></g></svg>