<svg xmlns="http://www.w3.org/2000/svg" xmlns:xlink="http://www.w3.org/1999/xlink" width="1080" zoomAndPan="magnify" viewBox="0 0 810 809.999993" height="1080" preserveAspectRatio="xMidYMid meet" version="1.2"><defs><clipPath id="00c4dfeb0e"><path d="M 298 682 L 526 682 L 526 769.5 L 298 769.5 Z M 298 682 "/></clipPath><filter x="0%" y="0%" width="100%" filterUnits="objectBoundingBox" id="f5a8090f74" height="100%"><feColorMatrix values="0 0 0 0 1 0 0 0 0 1 0 0 0 0 1 0 0 0 1 0" type="matrix" in="SourceGraphic"/></filter><clipPath id="e3de159a9a"><path d="M 0.199219 25 L 61 25 L 61 101.558594 L 0.199219 101.558594 Z M 0.199219 25 "/></clipPath><clipPath id="ff0bef9b1e"><path d="M 74 0.0390625 L 121.398438 0.0390625 L 121.398438 60 L 74 60 Z M 74 0.0390625 "/></clipPath><clipPath id="f4a572e862"><rect x="0" width="122" y="0" height="102"/></clipPath><clipPath id="da9507e024"><path d="M 0.277344 40.5 L 810 40.5 L 810 760 L 0.277344 760 Z M 0.277344 40.5 "/></clipPath><clipPath id="451c7b3cec"><path d="M 0.277344 280 L 173 280 L 173 432 L 0.277344 432 Z M 0.277344 280 "/></clipPath><clipPath id="4a54d83ecb"><path d="M 0.277344 574 L 363 574 L 363 719 L 0.277344 719 Z M 0.277344 574 "/></clipPath><clipPath id="f1964d3d25"><path d="M 0.277344 0.5 L 810 0.5 L 810 179 L 0.277344 179 Z M 0.277344 0.5 "/></clipPath><clipPath id="392d4511d2"><rect x="0" width="810" y="0" height="720"/></clipPath></defs><g id="0c15f2d598"><g clip-rule="nonzero" clip-path="url(#00c4dfeb0e)"><path style=" stroke:none;fill-rule:nonzero;fill:#b1bec6;fill-opacity:1;" d="M 525.21875 682.589844 C 511.820312 732.628906 466.171875 769.484375 411.921875 769.484375 C 357.675781 769.484375 312.015625 732.628906 298.628906 682.589844 Z M 525.21875 682.589844 "/></g><path style=" stroke:none;fill-rule:nonzero;fill:#b1bec6;fill-opacity:0.75;" d="M 489.410156 124.457031 C 466.597656 119.171875 440.585938 116.273438 410.917969 116.273438 C 385.332031 116.273438 362.457031 118.429688 342.003906 122.414062 C 345.347656 84.664062 377.03125 55.070312 415.632812 55.070312 C 454.238281 55.070312 487.058594 85.734375 489.410156 124.445312 Z M 489.410156 124.457031 "/><path style=" stroke:none;fill-rule:nonzero;fill:#b1bec6;fill-opacity:0.25;" d="M 664.667969 484.601562 C 583.171875 480.148438 498.21875 477.792969 410.917969 477.792969 C 323.621094 477.792969 238.667969 480.15625 157.171875 484.601562 C 158.371094 480.386719 159.441406 476.113281 160.371094 471.800781 C 177.183594 393.960938 133.585938 163.054688 342.003906 122.421875 C 362.445312 118.4375 385.324219 116.28125 410.917969 116.28125 C 440.585938 116.28125 466.597656 119.171875 489.410156 124.464844 C 686.917969 170.230469 644.925781 395.179688 661.464844 471.808594 C 662.394531 476.128906 663.472656 480.394531 664.667969 484.609375 Z M 664.667969 484.601562 "/><path style=" stroke:none;fill-rule:nonzero;fill:#b1bec6;fill-opacity:0.25;" d="M 615.800781 213.726562 C 600.722656 206.0625 583.605469 199.824219 564.175781 195.320312 C 541.363281 190.039062 515.351562 187.148438 485.683594 187.148438 C 460.097656 187.148438 437.21875 189.304688 416.769531 193.289062 C 249.761719 225.84375 244.578125 380.59375 240.453125 480.839844 C 212.324219 481.851562 184.550781 483.109375 157.171875 484.601562 C 158.363281 480.386719 159.441406 476.121094 160.371094 471.800781 C 177.183594 393.960938 133.585938 163.054688 342.003906 122.421875 C 362.457031 118.4375 385.332031 116.28125 410.917969 116.28125 C 440.585938 116.28125 466.597656 119.171875 489.410156 124.457031 C 553.140625 139.222656 591.933594 172.652344 615.800781 213.726562 Z M 615.800781 213.726562 "/><path style=" stroke:none;fill-rule:nonzero;fill:#b1bec6;fill-opacity:0.5;" d="M 752.746094 640.105469 C 752.746094 663.566406 733.726562 682.589844 710.28125 682.589844 L 111.554688 682.589844 C 88.109375 682.589844 69.089844 663.566406 69.089844 640.113281 C 69.089844 634.65625 70.136719 629.296875 72.128906 624.324219 C 74.101562 619.355469 77.03125 614.742188 80.808594 610.808594 C 100.742188 589.984375 140.671875 542.824219 157.171875 484.601562 C 238.667969 480.148438 323.621094 477.792969 410.917969 477.792969 C 498.21875 477.792969 583.171875 480.15625 664.667969 484.601562 C 681.183594 542.816406 721.113281 589.976562 741.027344 610.808594 C 748.566406 618.695312 752.746094 629.191406 752.746094 640.105469 Z M 752.746094 640.105469 "/><path style=" stroke:none;fill-rule:nonzero;fill:#b1bec6;fill-opacity:1;" d="M 710.28125 685.058594 L 111.554688 685.058594 C 86.777344 685.058594 66.621094 664.898438 66.621094 640.113281 C 66.621094 634.359375 67.699219 628.738281 69.832031 623.410156 C 71.964844 618.0625 75.050781 613.246094 79.023438 609.105469 C 100.402344 586.765625 138.679688 540.789062 154.792969 483.933594 C 155.992188 479.703125 157.0625 475.445312 157.960938 471.28125 C 161.351562 455.59375 162.257812 433.433594 163.308594 407.78125 C 165.390625 357.050781 167.976562 293.914062 190.960938 238.71875 C 203.496094 208.625 221.164062 183.714844 243.480469 164.683594 C 269.28125 142.6875 302.273438 127.65625 341.535156 120 C 362.601562 115.894531 385.949219 113.8125 410.917969 113.8125 C 439.78125 113.8125 466.378906 116.585938 489.972656 122.050781 C 527.0625 130.644531 558.21875 146.234375 582.585938 168.394531 C 603.667969 187.566406 620.367188 212.328125 632.226562 241.996094 C 653.976562 296.421875 656.503906 358.179688 658.535156 407.796875 C 659.589844 433.449219 660.496094 455.59375 663.875 471.28125 C 664.773438 475.457031 665.84375 479.703125 667.042969 483.925781 C 683.167969 540.757812 721.441406 586.746094 742.820312 609.097656 C 750.820312 617.460938 755.222656 628.464844 755.222656 640.097656 C 755.222656 664.890625 735.070312 685.050781 710.289062 685.050781 Z M 410.917969 118.75 C 386.261719 118.75 363.238281 120.800781 342.480469 124.851562 C 178.542969 156.8125 172.347656 307.964844 168.246094 407.980469 C 167.1875 433.859375 166.273438 456.21875 162.792969 472.328125 C 161.871094 476.589844 160.785156 480.953125 159.550781 485.285156 C 143.140625 543.160156 104.289062 589.84375 82.59375 612.519531 C 79.066406 616.199219 76.316406 620.480469 74.421875 625.238281 C 72.523438 629.988281 71.566406 634.992188 71.566406 640.113281 C 71.566406 662.175781 89.507812 680.121094 111.5625 680.121094 L 710.289062 680.121094 C 732.347656 680.121094 750.285156 662.175781 750.285156 640.113281 C 750.285156 629.75 746.367188 619.953125 739.257812 612.519531 C 717.566406 589.835938 678.714844 543.144531 662.304688 485.285156 C 661.078125 480.960938 659.984375 476.597656 659.0625 472.328125 C 655.589844 456.226562 654.675781 433.875 653.613281 408.003906 C 649.613281 310.328125 643.574219 162.714844 488.867188 126.867188 C 465.636719 121.484375 439.417969 118.75 410.933594 118.75 Z M 410.917969 118.75 "/><path style=" stroke:none;fill-rule:nonzero;fill:#b1bec6;fill-opacity:1;" d="M 455.589844 599.492188 L 105.992188 599.492188 L 105.992188 604.429688 L 455.589844 604.429688 Z M 455.589844 599.492188 "/><path style=" stroke:none;fill-rule:nonzero;fill:#b1bec6;fill-opacity:1;" d="M 592.519531 620.867188 L 357.507812 620.867188 L 357.507812 625.808594 L 592.519531 625.808594 Z M 592.519531 620.867188 "/><path style=" stroke:none;fill-rule:nonzero;fill:#b1bec6;fill-opacity:1;" d="M 643.976562 599.492188 L 517.738281 599.492188 L 517.738281 604.429688 L 643.976562 604.429688 Z M 643.976562 599.492188 "/><path style=" stroke:none;fill-rule:nonzero;fill:#b1bec6;fill-opacity:1;" d="M 604.648438 316.796875 C 594.757812 258.902344 559.855469 219.746094 532.328125 197.089844 C 502.382812 172.453125 474.402344 161.421875 474.121094 161.316406 L 475.90625 156.714844 C 476.195312 156.820312 504.792969 168.074219 535.332031 193.171875 C 553.28125 207.925781 568.414062 224.511719 580.3125 242.480469 C 595.203125 264.980469 605.027344 289.699219 609.519531 315.964844 L 604.65625 316.796875 Z M 604.648438 316.796875 "/><path style=" stroke:none;fill-rule:nonzero;fill:#b1bec6;fill-opacity:1;" d="M 337.617188 358.367188 C 319.800781 358.367188 310.207031 352.136719 305.292969 346.902344 C 299.828125 341.082031 298.757812 335.195312 298.71875 334.949219 L 303.582031 334.109375 L 301.144531 334.527344 L 303.574219 334.09375 C 303.722656 334.882812 307.472656 353.429688 337.609375 353.429688 C 367.746094 353.429688 372.585938 334.765625 372.773438 333.976562 L 377.589844 335.070312 C 377.375 336.027344 371.976562 358.367188 337.609375 358.367188 Z M 337.617188 358.367188 "/><path style=" stroke:none;fill-rule:nonzero;fill:#b1bec6;fill-opacity:1;" d="M 485.132812 358.367188 C 467.316406 358.367188 457.71875 352.136719 452.808594 346.902344 C 447.34375 341.082031 446.273438 335.195312 446.230469 334.949219 L 451.09375 334.109375 L 448.660156 334.527344 L 451.085938 334.09375 C 451.234375 334.882812 454.988281 353.429688 485.125 353.429688 C 515.261719 353.429688 520.097656 334.765625 520.289062 333.976562 L 525.101562 335.070312 C 524.890625 336.027344 519.492188 358.367188 485.125 358.367188 Z M 485.132812 358.367188 "/><path style=" stroke:none;fill-rule:nonzero;fill:#b1bec6;fill-opacity:0.75;" d="M 440.304688 429.800781 C 440.304688 438.453125 429.574219 445.589844 415.652344 446.71875 L 415.640625 446.71875 C 414.375 446.84375 413.066406 446.890625 411.75 446.890625 C 395.980469 446.890625 383.195312 439.242188 383.195312 429.800781 C 383.195312 420.359375 395.980469 412.722656 411.75 412.722656 C 427.519531 412.722656 440.304688 420.367188 440.304688 429.800781 Z M 440.304688 429.800781 "/><path style=" stroke:none;fill-rule:nonzero;fill:#b1bec6;fill-opacity:0.75;" d="M 437.789062 496.683594 C 423.765625 498.980469 436.183594 470.539062 429.8125 470.539062 C 423.445312 470.539062 429.304688 489.417969 419.863281 488.652344 C 410.441406 487.886719 415.640625 446.726562 415.640625 446.726562 L 415.652344 446.726562 C 429.566406 445.589844 440.304688 438.445312 440.304688 429.792969 C 440.304688 429.792969 451.804688 494.386719 437.789062 496.675781 Z M 437.789062 496.683594 "/><g mask="url(#82c38280cb)" transform="matrix(1,0,0,1,613,59)"><g clip-path="url(#f4a572e862)"><g clip-rule="nonzero" clip-path="url(#e3de159a9a)"><path style=" stroke:none;fill-rule:nonzero;fill:#b1bec6;fill-opacity:1;" d="M 23.84375 87.269531 L 60.273438 87.269531 L 60.273438 101.410156 L 0.90625 101.410156 L 0.90625 91.722656 L 37.242188 39.359375 L 0.703125 39.359375 L 0.703125 25.167969 L 59.914062 25.167969 L 59.914062 34.59375 L 23.84375 87.277344 Z M 23.84375 87.269531 "/></g><g clip-rule="nonzero" clip-path="url(#ff0bef9b1e)"><path style=" stroke:none;fill-rule:nonzero;fill:#b1bec6;fill-opacity:1;" d="M 92.886719 48.738281 L 121.164062 48.738281 L 121.164062 59.710938 L 75.097656 59.710938 L 75.097656 52.195312 L 103.289062 11.5625 L 74.941406 11.5625 L 74.941406 0.546875 L 120.882812 0.546875 L 120.882812 7.867188 L 92.894531 48.746094 Z M 92.886719 48.738281 "/></g></g><mask id="82c38280cb"><g filter="url(#f5a8090f74)"><rect x="0" width="810" y="0" height="809.999993" style="fill:#000000;fill-opacity:0.75;stroke:none;"/></g></mask></g><g clip-rule="nonzero" clip-path="url(#da9507e024)"><g mask="url(#cfee701c94)" transform="matrix(1,0,0,1,0,40)"><g clip-path="url(#392d4511d2)"><g clip-rule="nonzero" clip-path="url(#451c7b3cec)"><path style=" stroke:none;fill-rule:nonzero;fill:#b1bec6;fill-opacity:1;" d="M 72.046875 431.214844 L 160.496094 431.214844 C 167.292969 398.855469 163.984375 340.699219 172.371094 280.699219 C 163.03125 285.152344 152.578125 287.65625 141.535156 287.65625 L 72.046875 287.65625 C 32.410156 287.65625 0.277344 319.792969 0.277344 359.445312 C 0.277344 379.265625 8.308594 397.210938 21.292969 410.191406 C 34.289062 423.191406 52.21875 431.214844 72.035156 431.214844 Z M 72.046875 431.214844 "/></g><g clip-rule="nonzero" clip-path="url(#4a54d83ecb)"><path style=" stroke:none;fill-rule:nonzero;fill:#b1bec6;fill-opacity:1;" d="M 298.628906 642.589844 L 111.554688 642.589844 C 88.109375 642.589844 69.089844 623.566406 69.089844 600.113281 C 69.089844 594.65625 70.136719 589.296875 72.128906 584.324219 C 73.46875 580.941406 75.269531 577.742188 77.460938 574.792969 L 72.054688 574.792969 C 32.421875 574.792969 0.285156 606.929688 0.285156 646.566406 C 0.285156 666.386719 8.316406 684.332031 21.300781 697.324219 C 34.296875 710.320312 52.230469 718.347656 72.046875 718.347656 L 362.050781 718.347656 C 331.152344 703.800781 307.613281 676.167969 298.628906 642.582031 Z M 298.628906 642.589844 "/></g><g clip-rule="nonzero" clip-path="url(#f1964d3d25)"><path style=" stroke:none;fill-rule:nonzero;fill:#b1bec6;fill-opacity:1;" d="M 72.046875 144.085938 L 141.535156 144.085938 C 161.351562 144.085938 179.292969 152.121094 192.277344 165.109375 C 196.425781 169.257812 200.054688 173.917969 203.089844 178.972656 C 227.789062 133.457031 269.742188 96.5 341.996094 82.414062 C 345.339844 44.664062 377.023438 15.070312 415.625 15.070312 C 454.230469 15.070312 487.050781 45.734375 489.402344 84.445312 C 553.378906 99.273438 592.222656 132.898438 616.0625 174.195312 C 629.082031 155.972656 650.386719 144.078125 674.484375 144.078125 L 751.4375 144.078125 C 791.070312 144.078125 823.207031 111.933594 823.207031 72.289062 C 823.207031 52.464844 815.175781 34.523438 802.191406 21.53125 C 789.195312 8.535156 771.261719 0.507812 751.445312 0.507812 L 72.046875 0.507812 C 32.410156 0.515625 0.277344 32.660156 0.277344 72.304688 C 0.277344 92.128906 8.308594 110.074219 21.292969 123.0625 C 34.289062 136.058594 52.21875 144.085938 72.035156 144.085938 Z M 687.941406 19.546875 L 733.886719 19.546875 L 733.886719 26.867188 L 705.894531 67.746094 L 734.171875 67.746094 L 734.171875 78.71875 L 688.105469 78.71875 L 688.105469 71.203125 L 716.296875 30.570312 L 687.949219 30.570312 L 687.949219 19.554688 Z M 613.703125 44.160156 L 672.914062 44.160156 L 672.914062 53.585938 L 636.84375 106.269531 L 673.273438 106.269531 L 673.273438 120.410156 L 613.90625 120.410156 L 613.90625 110.722656 L 650.242188 58.359375 L 613.703125 58.359375 Z M 613.703125 44.160156 "/></g><path style=" stroke:none;fill-rule:nonzero;fill:#b1bec6;fill-opacity:1;" d="M 751.453125 574.792969 L 744.378906 574.792969 C 749.792969 582.070312 752.746094 590.945312 752.746094 600.105469 C 752.746094 623.566406 733.726562 642.589844 710.28125 642.589844 L 525.226562 642.589844 C 516.230469 676.175781 492.695312 703.800781 461.792969 718.355469 L 751.464844 718.355469 C 791.097656 718.355469 823.230469 686.210938 823.230469 646.566406 C 823.230469 626.742188 815.199219 608.796875 802.214844 595.816406 C 789.21875 582.820312 771.289062 574.792969 751.472656 574.792969 Z M 751.453125 574.792969 "/><path style=" stroke:none;fill-rule:nonzero;fill:#b1bec6;fill-opacity:1;" d="M 751.453125 287.65625 L 674.5 287.65625 C 665.835938 287.65625 657.523438 286.117188 649.828125 283.300781 C 657.8125 342.742188 654.601562 400.027344 661.464844 431.800781 C 662.394531 436.121094 663.472656 440.386719 664.667969 444.601562 C 667.390625 454.191406 670.75 463.46875 674.550781 472.382812 C 686.039062 448.050781 710.785156 431.207031 739.472656 431.207031 L 751.464844 431.207031 C 791.097656 431.207031 823.230469 399.070312 823.230469 359.433594 C 823.230469 339.613281 815.199219 321.660156 802.214844 308.679688 C 789.21875 295.679688 771.289062 287.65625 751.472656 287.65625 Z M 751.453125 287.65625 "/></g><mask id="cfee701c94"><g filter="url(#f5a8090f74)"><rect x="0" width="810" y="0" height="809.999993" style="fill:#000000;fill-opacity:0.25;stroke:none;"/></g></mask></g></g></g></svg>