<svg xmlns="http://www.w3.org/2000/svg" xmlns:xlink="http://www.w3.org/1999/xlink" width="1080" zoomAndPan="magnify" viewBox="0 0 810 809.999993" height="1080" preserveAspectRatio="xMidYMid meet" version="1.2"><g id="169dd0cf0c"><rect x="0" width="810" y="0" height="809.999993" style="fill:#ffffff;fill-opacity:1;stroke:none;"/><rect x="0" width="810" y="0" height="809.999993" style="fill:#ffffff;fill-opacity:1;stroke:none;"/><path style=" stroke:none;fill-rule:nonzero;fill:#55a6a6;fill-opacity:1;" d="M 810 405 C 810 411.628906 809.835938 418.253906 809.511719 424.871094 C 809.1875 431.492188 808.699219 438.101562 808.050781 444.695312 C 807.398438 451.292969 806.589844 457.871094 805.617188 464.425781 C 804.644531 470.980469 803.511719 477.511719 802.21875 484.011719 C 800.925781 490.511719 799.472656 496.976562 797.863281 503.40625 C 796.253906 509.835938 794.484375 516.222656 792.5625 522.566406 C 790.636719 528.90625 788.558594 535.199219 786.324219 541.441406 C 784.09375 547.679688 781.707031 553.863281 779.171875 559.988281 C 776.632812 566.109375 773.949219 572.167969 771.117188 578.160156 C 768.28125 584.152344 765.300781 590.070312 762.179688 595.914062 C 759.054688 601.761719 755.789062 607.527344 752.378906 613.210938 C 748.972656 618.898438 745.425781 624.496094 741.746094 630.007812 C 738.0625 635.515625 734.246094 640.933594 730.300781 646.257812 C 726.351562 651.582031 722.273438 656.804688 718.070312 661.929688 C 713.863281 667.054688 709.535156 672.070312 705.085938 676.980469 C 700.632812 681.890625 696.066406 686.691406 691.378906 691.378906 C 686.691406 696.066406 681.890625 700.632812 676.980469 705.085938 C 672.070312 709.535156 667.054688 713.863281 661.929688 718.070312 C 656.804688 722.273438 651.582031 726.351562 646.257812 730.300781 C 640.933594 734.246094 635.515625 738.0625 630.007812 741.746094 C 624.496094 745.425781 618.898438 748.972656 613.210938 752.378906 C 607.527344 755.789062 601.761719 759.054688 595.914062 762.179688 C 590.070312 765.300781 584.152344 768.28125 578.160156 771.117188 C 572.167969 773.949219 566.109375 776.632812 559.988281 779.171875 C 553.863281 781.707031 547.679688 784.09375 541.441406 786.324219 C 535.199219 788.558594 528.90625 790.636719 522.566406 792.5625 C 516.222656 794.484375 509.835938 796.253906 503.40625 797.863281 C 496.976562 799.472656 490.511719 800.925781 484.011719 802.21875 C 477.511719 803.511719 470.980469 804.644531 464.425781 805.617188 C 457.871094 806.589844 451.292969 807.398438 444.695312 808.050781 C 438.101562 808.699219 431.492188 809.1875 424.871094 809.511719 C 418.253906 809.835938 411.628906 810 405 810 C 398.371094 810 391.746094 809.835938 385.128906 809.511719 C 378.507812 809.1875 371.898438 808.699219 365.304688 808.050781 C 358.707031 807.398438 352.128906 806.589844 345.574219 805.617188 C 339.019531 804.644531 332.488281 803.511719 325.988281 802.21875 C 319.488281 800.925781 313.023438 799.472656 306.59375 797.863281 C 300.164062 796.253906 293.777344 794.484375 287.433594 792.5625 C 281.09375 790.636719 274.800781 788.558594 268.558594 786.324219 C 262.320312 784.09375 256.136719 781.707031 250.011719 779.171875 C 243.890625 776.632812 237.832031 773.949219 231.839844 771.117188 C 225.847656 768.28125 219.929688 765.300781 214.085938 762.179688 C 208.238281 759.054688 202.472656 755.789062 196.789062 752.378906 C 191.101562 748.972656 185.503906 745.425781 179.992188 741.746094 C 174.484375 738.0625 169.066406 734.246094 163.742188 730.300781 C 158.417969 726.351562 153.195312 722.273438 148.070312 718.070312 C 142.945312 713.863281 137.929688 709.535156 133.019531 705.085938 C 128.109375 700.632812 123.308594 696.066406 118.621094 691.378906 C 113.933594 686.691406 109.367188 681.890625 104.914062 676.980469 C 100.464844 672.070312 96.136719 667.054688 91.929688 661.929688 C 87.726562 656.804688 83.648438 651.582031 79.699219 646.257812 C 75.753906 640.933594 71.9375 635.515625 68.253906 630.007812 C 64.574219 624.496094 61.027344 618.898438 57.621094 613.210938 C 54.210938 607.527344 50.945312 601.761719 47.820312 595.914062 C 44.699219 590.070312 41.71875 584.152344 38.882812 578.160156 C 36.050781 572.167969 33.367188 566.109375 30.828125 559.988281 C 28.292969 553.863281 25.90625 547.679688 23.675781 541.441406 C 21.441406 535.199219 19.363281 528.90625 17.4375 522.566406 C 15.515625 516.222656 13.746094 509.835938 12.136719 503.40625 C 10.527344 496.976562 9.074219 490.511719 7.78125 484.011719 C 6.488281 477.511719 5.355469 470.980469 4.382812 464.425781 C 3.410156 457.871094 2.601562 451.292969 1.949219 444.695312 C 1.300781 438.101562 0.8125 431.492188 0.488281 424.871094 C 0.164062 418.253906 0 411.628906 0 405 C 0 398.371094 0.164062 391.746094 0.488281 385.128906 C 0.8125 378.507812 1.300781 371.898438 1.949219 365.304688 C 2.601562 358.707031 3.410156 352.128906 4.382812 345.574219 C 5.355469 339.019531 6.488281 332.488281 7.78125 325.988281 C 9.074219 319.488281 10.527344 313.023438 12.136719 306.59375 C 13.746094 300.164062 15.515625 293.777344 17.4375 287.433594 C 19.363281 281.09375 21.441406 274.800781 23.675781 268.558594 C 25.90625 262.320312 28.292969 256.136719 30.828125 250.011719 C 33.367188 243.890625 36.050781 237.832031 38.882812 231.839844 C 41.71875 225.847656 44.699219 219.929688 47.820312 214.085938 C 50.945312 208.238281 54.210938 202.472656 57.621094 196.789062 C 61.027344 191.101562 64.574219 185.503906 68.253906 179.992188 C 71.9375 174.484375 75.753906 169.066406 79.699219 163.742188 C 83.648438 158.417969 87.726562 153.195312 91.929688 148.070312 C 96.136719 142.945312 100.464844 137.929688 104.914062 133.019531 C 109.367188 128.109375 113.933594 123.308594 118.621094 118.621094 C 123.308594 113.933594 128.109375 109.367188 133.019531 104.914062 C 137.929688 100.464844 142.945312 96.136719 148.070312 91.929688 C 153.195312 87.726562 158.417969 83.648438 163.742188 79.699219 C 169.066406 75.753906 174.484375 71.9375 179.992188 68.253906 C 185.503906 64.574219 191.101562 61.027344 196.789062 57.621094 C 202.472656 54.210938 208.238281 50.945312 214.085938 47.820312 C 219.929688 44.699219 225.847656 41.71875 231.839844 38.882812 C 237.832031 36.050781 243.890625 33.367188 250.011719 30.828125 C 256.136719 28.292969 262.320312 25.90625 268.558594 23.675781 C 274.800781 21.441406 281.09375 19.363281 287.433594 17.4375 C 293.777344 15.515625 300.164062 13.746094 306.59375 12.136719 C 313.023438 10.527344 319.488281 9.074219 325.988281 7.78125 C 332.488281 6.488281 339.019531 5.355469 345.574219 4.382812 C 352.128906 3.410156 358.707031 2.601562 365.304688 1.949219 C 371.898438 1.300781 378.507812 0.8125 385.128906 0.488281 C 391.746094 0.164062 398.371094 0 405 0 C 411.628906 0 418.253906 0.164062 424.871094 0.488281 C 431.492188 0.8125 438.101562 1.300781 444.695312 1.949219 C 451.292969 2.601562 457.871094 3.410156 464.425781 4.382812 C 470.980469 5.355469 477.511719 6.488281 484.011719 7.78125 C 490.511719 9.074219 496.976562 10.527344 503.40625 12.136719 C 509.835938 13.746094 516.222656 15.515625 522.566406 17.4375 C 528.90625 19.363281 535.199219 21.441406 541.441406 23.675781 C 547.679688 25.90625 553.863281 28.292969 559.988281 30.828125 C 566.109375 33.367188 572.167969 36.050781 578.160156 38.882812 C 584.152344 41.71875 590.070312 44.699219 595.914062 47.820312 C 601.761719 50.945312 607.527344 54.210938 613.210938 57.621094 C 618.898438 61.027344 624.496094 64.574219 630.007812 68.253906 C 635.515625 71.9375 640.933594 75.753906 646.257812 79.699219 C 651.582031 83.648438 656.804688 87.726562 661.929688 91.929688 C 667.054688 96.136719 672.070312 100.464844 676.980469 104.914062 C 681.890625 109.367188 686.691406 113.933594 691.378906 118.621094 C 696.066406 123.308594 700.632812 128.109375 705.085938 133.019531 C 709.535156 137.929688 713.863281 142.945312 718.070312 148.070312 C 722.273438 153.195312 726.351562 158.417969 730.300781 163.742188 C 734.246094 169.066406 738.0625 174.484375 741.746094 179.992188 C 745.425781 185.503906 748.972656 191.101562 752.378906 196.789062 C 755.789062 202.472656 759.054688 208.238281 762.179688 214.085938 C 765.300781 219.929688 768.28125 225.847656 771.117188 231.839844 C 773.949219 237.832031 776.632812 243.890625 779.171875 250.011719 C 781.707031 256.136719 784.09375 262.320312 786.324219 268.558594 C 788.558594 274.800781 790.636719 281.09375 792.5625 287.433594 C 794.484375 293.777344 796.253906 300.164062 797.863281 306.59375 C 799.472656 313.023438 800.925781 319.488281 802.21875 325.988281 C 803.511719 332.488281 804.644531 339.019531 805.617188 345.574219 C 806.589844 352.128906 807.398438 358.707031 808.050781 365.304688 C 808.699219 371.898438 809.1875 378.507812 809.511719 385.128906 C 809.835938 391.746094 810 398.371094 810 405 Z M 810 405 "/><path style=" stroke:none;fill-rule:nonzero;fill:#1d6f6f;fill-opacity:1;" d="M 556.875 253.125 C 556.875 255.609375 556.8125 258.09375 556.691406 260.578125 C 556.570312 263.058594 556.386719 265.539062 556.144531 268.011719 C 555.898438 270.484375 555.597656 272.949219 555.230469 275.410156 C 554.867188 277.867188 554.441406 280.316406 553.957031 282.753906 C 553.472656 285.191406 552.925781 287.617188 552.324219 290.027344 C 551.71875 292.4375 551.058594 294.832031 550.335938 297.210938 C 549.613281 299.589844 548.835938 301.949219 547.996094 304.289062 C 547.160156 306.628906 546.265625 308.949219 545.3125 311.246094 C 544.363281 313.542969 543.355469 315.8125 542.292969 318.058594 C 541.230469 320.308594 540.113281 322.527344 538.941406 324.71875 C 537.769531 326.910156 536.546875 329.074219 535.265625 331.203125 C 533.988281 333.335938 532.660156 335.4375 531.28125 337.503906 C 529.898438 339.570312 528.46875 341.601562 526.988281 343.597656 C 525.507812 345.59375 523.976562 347.550781 522.402344 349.472656 C 520.824219 351.394531 519.199219 353.277344 517.53125 355.117188 C 515.863281 356.960938 514.148438 358.757812 512.390625 360.515625 C 510.632812 362.273438 508.835938 363.988281 506.992188 365.65625 C 505.152344 367.324219 503.269531 368.949219 501.347656 370.527344 C 499.425781 372.101562 497.46875 373.632812 495.472656 375.113281 C 493.476562 376.59375 491.445312 378.023438 489.378906 379.40625 C 487.308594 380.785156 485.210938 382.113281 483.078125 383.390625 C 480.949219 384.671875 478.785156 385.894531 476.59375 387.066406 C 474.402344 388.238281 472.183594 389.355469 469.933594 390.417969 C 467.6875 391.480469 465.417969 392.488281 463.121094 393.4375 C 460.824219 394.390625 458.503906 395.285156 456.164062 396.121094 C 453.824219 396.960938 451.464844 397.738281 449.085938 398.460938 C 446.707031 399.183594 444.3125 399.84375 441.902344 400.449219 C 439.492188 401.050781 437.066406 401.597656 434.628906 402.082031 C 432.191406 402.566406 429.742188 402.992188 427.285156 403.355469 C 424.824219 403.722656 422.359375 404.023438 419.886719 404.269531 C 417.414062 404.511719 414.933594 404.695312 412.453125 404.816406 C 409.96875 404.9375 407.484375 405 405 405 C 402.515625 405 400.03125 404.9375 397.546875 404.816406 C 395.066406 404.695312 392.585938 404.511719 390.113281 404.269531 C 387.640625 404.023438 385.175781 403.722656 382.714844 403.355469 C 380.257812 402.992188 377.808594 402.566406 375.371094 402.082031 C 372.933594 401.597656 370.507812 401.050781 368.097656 400.449219 C 365.6875 399.84375 363.292969 399.183594 360.914062 398.460938 C 358.535156 397.738281 356.175781 396.960938 353.835938 396.121094 C 351.496094 395.285156 349.175781 394.390625 346.878906 393.4375 C 344.582031 392.488281 342.3125 391.480469 340.066406 390.417969 C 337.816406 389.355469 335.597656 388.238281 333.40625 387.066406 C 331.214844 385.894531 329.050781 384.671875 326.921875 383.390625 C 324.789062 382.113281 322.6875 380.785156 320.621094 379.40625 C 318.554688 378.023438 316.523438 376.59375 314.527344 375.113281 C 312.53125 373.632812 310.574219 372.101562 308.652344 370.527344 C 306.730469 368.949219 304.847656 367.324219 303.007812 365.65625 C 301.164062 363.988281 299.367188 362.273438 297.609375 360.515625 C 295.851562 358.757812 294.136719 356.960938 292.46875 355.117188 C 290.796875 353.277344 289.175781 351.394531 287.597656 349.472656 C 286.023438 347.550781 284.492188 345.59375 283.011719 343.597656 C 281.53125 341.601562 280.101562 339.570312 278.71875 337.503906 C 277.339844 335.4375 276.011719 333.335938 274.730469 331.203125 C 273.453125 329.074219 272.230469 326.910156 271.058594 324.71875 C 269.886719 322.527344 268.769531 320.308594 267.707031 318.058594 C 266.644531 315.8125 265.636719 313.542969 264.6875 311.246094 C 263.734375 308.949219 262.839844 306.628906 262.003906 304.289062 C 261.164062 301.949219 260.386719 299.589844 259.664062 297.210938 C 258.941406 294.832031 258.28125 292.4375 257.675781 290.027344 C 257.074219 287.617188 256.527344 285.191406 256.042969 282.753906 C 255.558594 280.316406 255.132812 277.867188 254.769531 275.410156 C 254.402344 272.949219 254.101562 270.484375 253.855469 268.011719 C 253.613281 265.539062 253.429688 263.058594 253.308594 260.578125 C 253.1875 258.09375 253.125 255.609375 253.125 253.125 C 253.125 250.640625 253.1875 248.15625 253.308594 245.671875 C 253.429688 243.191406 253.613281 240.710938 253.855469 238.238281 C 254.101562 235.765625 254.402344 233.300781 254.769531 230.839844 C 255.132812 228.382812 255.558594 225.933594 256.042969 223.496094 C 256.527344 221.058594 257.074219 218.632812 257.675781 216.222656 C 258.28125 213.8125 258.941406 211.417969 259.664062 209.039062 C 260.386719 206.660156 261.164062 204.300781 262.003906 201.960938 C 262.839844 199.621094 263.734375 197.300781 264.6875 195.003906 C 265.636719 192.707031 266.644531 190.4375 267.707031 188.191406 C 268.769531 185.941406 269.886719 183.722656 271.058594 181.53125 C 272.230469 179.339844 273.453125 177.175781 274.730469 175.046875 C 276.011719 172.914062 277.339844 170.8125 278.71875 168.746094 C 280.101562 166.679688 281.53125 164.648438 283.011719 162.652344 C 284.492188 160.65625 286.023438 158.699219 287.597656 156.777344 C 289.175781 154.855469 290.796875 152.972656 292.46875 151.132812 C 294.136719 149.289062 295.851562 147.492188 297.609375 145.734375 C 299.367188 143.976562 301.164062 142.261719 303.007812 140.59375 C 304.847656 138.925781 306.730469 137.300781 308.652344 135.722656 C 310.574219 134.148438 312.53125 132.617188 314.527344 131.136719 C 316.523438 129.65625 318.554688 128.226562 320.621094 126.84375 C 322.6875 125.464844 324.789062 124.136719 326.921875 122.859375 C 329.050781 121.578125 331.214844 120.355469 333.40625 119.183594 C 335.597656 118.011719 337.816406 116.894531 340.066406 115.832031 C 342.3125 114.769531 344.582031 113.761719 346.878906 112.8125 C 349.175781 111.859375 351.496094 110.964844 353.835938 110.128906 C 356.175781 109.289062 358.535156 108.511719 360.914062 107.789062 C 363.292969 107.066406 365.6875 106.40625 368.097656 105.800781 C 370.507812 105.199219 372.933594 104.652344 375.371094 104.167969 C 377.808594 103.683594 380.257812 103.257812 382.714844 102.894531 C 385.175781 102.527344 387.640625 102.226562 390.113281 101.980469 C 392.585938 101.738281 395.066406 101.554688 397.546875 101.433594 C 400.03125 101.3125 402.515625 101.25 405 101.25 C 407.484375 101.25 409.96875 101.3125 412.453125 101.433594 C 414.933594 101.554688 417.414062 101.738281 419.886719 101.980469 C 422.359375 102.226562 424.824219 102.527344 427.285156 102.894531 C 429.742188 103.257812 432.191406 103.683594 434.628906 104.167969 C 437.066406 104.652344 439.492188 105.199219 441.902344 105.800781 C 444.3125 106.40625 446.707031 107.066406 449.085938 107.789062 C 451.464844 108.511719 453.824219 109.289062 456.164062 110.128906 C 458.503906 110.964844 460.824219 111.859375 463.121094 112.8125 C 465.417969 113.761719 467.6875 114.769531 469.933594 115.832031 C 472.183594 116.894531 474.402344 118.011719 476.59375 119.183594 C 478.785156 120.355469 480.949219 121.578125 483.078125 122.859375 C 485.210938 124.136719 487.308594 125.464844 489.378906 126.84375 C 491.445312 128.226562 493.476562 129.65625 495.472656 131.136719 C 497.46875 132.617188 499.425781 134.148438 501.347656 135.722656 C 503.269531 137.300781 505.152344 138.925781 506.992188 140.59375 C 508.835938 142.261719 510.632812 143.976562 512.390625 145.734375 C 514.148438 147.492188 515.863281 149.289062 517.53125 151.132812 C 519.199219 152.972656 520.824219 154.855469 522.402344 156.777344 C 523.976562 158.699219 525.507812 160.65625 526.988281 162.652344 C 528.46875 164.648438 529.898438 166.679688 531.28125 168.746094 C 532.660156 170.8125 533.988281 172.914062 535.265625 175.046875 C 536.546875 177.175781 537.769531 179.339844 538.941406 181.53125 C 540.113281 183.722656 541.230469 185.941406 542.292969 188.191406 C 543.355469 190.4375 544.363281 192.707031 545.3125 195.003906 C 546.265625 197.300781 547.160156 199.621094 547.996094 201.960938 C 548.835938 204.300781 549.613281 206.660156 550.335938 209.039062 C 551.058594 211.417969 551.71875 213.8125 552.324219 216.222656 C 552.925781 218.632812 553.472656 221.058594 553.957031 223.496094 C 554.441406 225.933594 554.867188 228.382812 555.230469 230.839844 C 555.597656 233.300781 555.898438 235.765625 556.144531 238.238281 C 556.386719 240.710938 556.570312 243.191406 556.691406 245.671875 C 556.8125 248.15625 556.875 250.640625 556.875 253.125 Z M 556.875 253.125 "/><path style=" stroke:none;fill-rule:nonzero;fill:#1d6f6f;fill-opacity:1;" d="M 405 455.625 C 256.832031 455.625 127.132812 523.035156 64.984375 624.246094 C 69.535156 631.332031 74.300781 638.269531 79.285156 645.058594 C 84.269531 651.847656 89.457031 658.472656 94.855469 664.933594 C 100.253906 671.398438 105.847656 677.6875 111.640625 683.800781 C 117.429688 689.914062 123.40625 695.839844 129.566406 701.582031 C 135.730469 707.320312 142.066406 712.863281 148.574219 718.207031 C 155.082031 723.550781 161.75 728.6875 168.578125 733.613281 C 175.40625 738.542969 182.382812 743.25 189.507812 747.742188 C 196.628906 752.230469 203.886719 756.496094 211.277344 760.535156 C 218.667969 764.570312 226.175781 768.371094 233.804688 771.941406 C 241.429688 775.507812 249.164062 778.835938 257 781.917969 C 264.835938 785.003906 272.757812 787.839844 280.773438 790.429688 C 288.785156 793.019531 296.871094 795.355469 305.03125 797.4375 C 313.191406 799.519531 321.40625 801.347656 329.679688 802.917969 C 337.953125 804.488281 346.265625 805.796875 354.621094 806.847656 C 362.976562 807.894531 371.355469 808.683594 379.761719 809.210938 C 388.167969 809.734375 396.578125 810 405 810 C 413.421875 810 421.832031 809.734375 430.238281 809.210938 C 438.644531 808.683594 447.023438 807.894531 455.378906 806.847656 C 463.734375 805.796875 472.046875 804.488281 480.320312 802.917969 C 488.59375 801.347656 496.808594 799.519531 504.96875 797.4375 C 513.128906 795.355469 521.214844 793.019531 529.226562 790.429688 C 537.242188 787.839844 545.164062 785.003906 553 781.917969 C 560.835938 778.835938 568.570312 775.507812 576.195312 771.941406 C 583.824219 768.371094 591.332031 764.570312 598.722656 760.535156 C 606.113281 756.496094 613.371094 752.230469 620.492188 747.742188 C 627.617188 743.25 634.59375 738.542969 641.421875 733.613281 C 648.25 728.6875 654.917969 723.550781 661.425781 718.207031 C 667.933594 712.863281 674.269531 707.320312 680.429688 701.582031 C 686.59375 695.839844 692.570312 689.914062 698.359375 683.800781 C 704.152344 677.6875 709.746094 671.398438 715.144531 664.933594 C 720.542969 658.472656 725.730469 651.847656 730.714844 645.058594 C 735.699219 638.269531 740.464844 631.332031 745.015625 624.246094 C 682.867188 523.03125 553.167969 455.625 405 455.625 Z M 405 455.625 "/></g></svg>